<svg width="24" height="24" viewBox="0 0 24 24" fill="none" xmlns="http://www.w3.org/2000/svg">
<path d="M10 2C8.41775 2 6.87103 2.46919 5.55544 3.34824C4.23985 4.22729 3.21447 5.47672 2.60897 6.93853C2.00347 8.40034 1.84504 10.0089 2.15372 11.5607C2.4624 13.1126 3.22433 14.538 4.34315 15.6569C5.46197 16.7757 6.88743 17.5376 8.43928 17.8463C9.99113 18.155 11.5997 17.9965 13.0615 17.391C14.5233 16.7855 15.7727 15.7602 16.6518 14.4446C17.5308 13.129 18 11.5822 18 10C17.9999 7.87831 17.157 5.84356 15.6567 4.34329C14.1564 2.84303 12.1217 2.00014 10 2Z" stroke="#4B4B4B" stroke-miterlimit="10"/>
<path d="M10 5C9.0111 5 8.0444 5.29324 7.22215 5.84265C6.39991 6.39206 5.75904 7.17295 5.3806 8.08658C5.00217 9.00021 4.90315 10.0055 5.09608 10.9755C5.289 11.9454 5.76521 12.8363 6.46447 13.5355C7.16373 14.2348 8.05465 14.711 9.02455 14.9039C9.99446 15.0969 10.9998 14.9978 11.9134 14.6194C12.827 14.241 13.6079 13.6001 14.1573 12.7778C14.7068 11.9556 15 10.9889 15 10C14.9999 8.67394 14.4731 7.40222 13.5354 6.46456C12.5978 5.5269 11.3261 5.00008 10 5Z" fill="#4B4B4B" stroke="#4B4B4B" stroke-miterlimit="10"/>
<path d="M16 16L22 22" stroke="#4B4B4B" stroke-miterlimit="10" stroke-linecap="round"/>
</svg>
