<svg width="207" height="67" viewBox="0 0 207 67" fill="none" xmlns="http://www.w3.org/2000/svg">
<g filter="url(#filter0_d_20_3476)">
<path d="M5.05064 35.5659C4.63021 35.1947 4.59644 34.551 4.97579 34.1389L28.1605 8.95721C28.3377 8.7647 28.5835 8.64949 28.8451 8.63633L198.977 0.0728063C199.521 0.0453983 199.988 0.459161 200.026 1.00304L201.721 25.2272L202.751 49.0932C202.775 49.6417 202.352 50.106 201.804 50.1336L31.6804 58.6967C31.4194 58.7098 31.1635 58.6203 30.9674 58.4472L5.05064 35.5659Z" fill="#FBF1E2"/>
</g>
<path d="M66.2181 24.3455C66.2181 25.0134 66.1127 25.6873 65.9017 26.367C65.6908 27.0466 65.3802 27.7029 64.9701 28.3357C64.5716 28.9685 64.0853 29.5662 63.5111 30.1287C62.9486 30.6912 62.3158 31.1892 61.6127 31.6228C60.9212 32.0447 60.1712 32.3904 59.3627 32.6599C58.5541 32.9295 57.7103 33.0935 56.8314 33.1521C56.6673 33.1756 56.5033 33.1756 56.3392 33.1521C56.1869 33.117 56.0462 33.0818 55.9173 33.0466C55.8236 33.0115 55.6888 32.9588 55.513 32.8884C55.349 32.8181 55.2435 32.7654 55.1966 32.7302C55.1263 32.6599 55.0267 32.5545 54.8978 32.4138C54.7806 32.2615 54.6927 32.1384 54.6341 32.0447C54.599 31.9861 54.5814 31.8923 54.5814 31.7634C54.5931 31.6228 54.599 31.4646 54.599 31.2888C54.599 31.1248 54.5931 30.9548 54.5814 30.7791C54.5814 30.5916 54.599 30.4861 54.6341 30.4627C54.6576 30.4392 54.7103 30.4627 54.7923 30.533C54.8861 30.5916 55.0619 30.6384 55.3197 30.6736C55.4252 30.697 55.5423 30.7029 55.6712 30.6912C55.8119 30.6795 55.9466 30.6619 56.0755 30.6384C56.4857 30.6033 56.9603 30.4861 57.4994 30.2869C58.0384 30.0877 58.5892 29.824 59.1517 29.4959C59.7259 29.1677 60.2884 28.7869 60.8392 28.3533C61.39 27.908 61.8763 27.4334 62.2982 26.9295C62.7318 26.4256 63.0775 25.8923 63.3353 25.3298C63.6048 24.7673 63.7396 24.199 63.7396 23.6248C63.7396 23.1795 63.6517 22.7517 63.4759 22.3416C63.3002 21.9197 63.0248 21.5037 62.6498 21.0935C62.4154 20.824 61.9584 20.6131 61.2787 20.4607C60.599 20.3084 59.7845 20.2322 58.8353 20.2322C58.0267 20.2322 57.1595 20.2966 56.2337 20.4256C55.308 20.5545 54.388 20.7654 53.474 21.0584C52.6888 21.3162 52.0209 21.5447 51.4701 21.7439C50.9193 21.9314 50.4447 22.1013 50.0462 22.2537C49.6595 22.406 49.3373 22.5349 49.0795 22.6404C48.8334 22.7459 48.6166 22.8396 48.4291 22.9216C48.2416 22.992 48.0716 23.0623 47.9193 23.1326C47.767 23.1912 47.6029 23.2439 47.4271 23.2908C47.263 23.3494 47.1341 23.3845 47.0404 23.3963C46.9466 23.3963 46.8705 23.3963 46.8119 23.3963C46.7181 23.3728 46.6478 23.3494 46.6009 23.3259C46.5658 23.2908 46.5189 23.2556 46.4603 23.2205C46.4134 23.1853 46.3666 23.1736 46.3197 23.1853C46.2728 23.1853 46.2259 23.1912 46.1791 23.2029C46.1439 23.2146 46.1029 23.2146 46.056 23.2029C46.0091 23.1912 45.9623 23.1502 45.9154 23.0798C45.8451 22.9509 45.7982 22.8513 45.7748 22.781C45.7396 22.699 45.722 22.6345 45.722 22.5877C45.7103 22.5291 45.7103 22.4763 45.722 22.4295C45.7337 22.3826 45.7513 22.324 45.7748 22.2537C45.7865 22.1834 45.7865 22.1189 45.7748 22.0603C45.763 22.0017 45.7572 21.949 45.7572 21.9021C45.7455 21.8552 45.7513 21.8084 45.7748 21.7615C45.7865 21.7029 45.8334 21.6384 45.9154 21.5681C46.0795 21.4392 46.349 21.24 46.724 20.9705C47.099 20.7009 47.5619 20.408 48.1127 20.0916C48.6752 19.7634 49.3138 19.4295 50.0287 19.0896C50.7552 18.7498 51.5404 18.4392 52.3841 18.158C53.2396 17.865 54.1478 17.6248 55.1087 17.4373C56.0814 17.2381 57.0951 17.1267 58.1498 17.1033C59.2045 17.0798 60.1302 17.197 60.9271 17.4548C61.7357 17.7009 62.4388 18.0349 63.0365 18.4568C63.6341 18.867 64.1322 19.3416 64.5306 19.8806C64.9408 20.408 65.2689 20.9412 65.515 21.4802C65.7611 22.0193 65.9369 22.5408 66.0423 23.0447C66.1478 23.5486 66.2064 23.9822 66.2181 24.3455ZM54.1595 21.99C54.1478 22.0486 54.1244 22.2478 54.0892 22.5877C54.0658 22.9275 54.0306 23.367 53.9837 23.906C53.9486 24.4334 53.9076 25.0369 53.8607 25.7166C53.8138 26.3963 53.767 27.1052 53.7201 27.8435C53.6732 28.5818 53.6263 29.3318 53.5795 30.0935C53.5443 30.8435 53.5209 31.5642 53.5091 32.2556C53.4857 32.9588 53.4681 33.6853 53.4564 34.4353C53.4447 35.1736 53.4388 35.9236 53.4388 36.6853C53.4388 37.5642 53.4564 38.4314 53.4916 39.2869C53.5384 40.1423 53.6146 40.9685 53.7201 41.7654C53.767 42.0349 53.7494 42.2459 53.6673 42.3982C53.5853 42.5506 53.5443 42.6853 53.5443 42.8025C53.5443 42.8377 53.5619 42.8728 53.597 42.908C53.6322 42.9314 53.638 42.9548 53.6146 42.9783C53.5795 43.0369 53.515 43.0603 53.4212 43.0486C53.3392 43.0369 53.263 43.0017 53.1927 42.9431C53.1576 42.908 53.1283 42.867 53.1048 42.8201C53.0814 42.7615 53.058 42.7146 53.0345 42.6795C53.0111 42.6443 52.9818 42.6267 52.9466 42.6267C52.9115 42.615 52.8587 42.6384 52.7884 42.697C52.7298 42.7556 52.6595 42.8377 52.5775 42.9431C52.5072 43.0486 52.431 43.1599 52.349 43.2771C52.267 43.3826 52.1849 43.4763 52.1029 43.5584C52.0209 43.6521 51.9388 43.7107 51.8568 43.7341C51.7865 43.7576 51.6986 43.781 51.5931 43.8045C51.4994 43.8279 51.4408 43.7927 51.4173 43.699C51.3939 43.6521 51.3705 43.6228 51.347 43.6111C51.3236 43.5994 51.2943 43.5818 51.2591 43.5584C51.224 43.5466 51.1888 43.5232 51.1537 43.4881C51.1302 43.4646 51.1127 43.406 51.1009 43.3123C51.0423 43.1131 50.972 42.9666 50.89 42.8728C50.8197 42.7673 50.7845 42.6502 50.7845 42.5213C50.7611 42.322 50.7025 41.7478 50.6087 40.7986C50.5267 39.8494 50.4857 38.5369 50.4857 36.8611C50.4857 36.1931 50.4916 35.4666 50.5033 34.6814C50.5267 33.8963 50.5677 33.0642 50.6263 32.1853C50.6849 31.4002 50.7552 30.5506 50.8373 29.6365C50.9193 28.7224 51.0013 27.8259 51.0834 26.947C51.1771 26.0681 51.2591 25.2478 51.3295 24.4861C51.3998 23.7244 51.4525 23.0974 51.4877 22.6052C51.4994 22.5232 51.5287 22.4705 51.5755 22.447C51.6224 22.4236 51.6869 22.406 51.7689 22.3943C51.8509 22.3826 51.9564 22.3709 52.0853 22.3591C52.2142 22.3357 52.3666 22.2888 52.5423 22.2185C52.683 22.1482 52.847 22.0779 53.0345 22.0076C53.2337 21.9373 53.4154 21.8845 53.5795 21.8494C53.7552 21.8025 53.8959 21.7849 54.0013 21.7966C54.1185 21.8084 54.1712 21.8728 54.1595 21.99ZM77.8021 43.3123C77.8021 43.4177 77.7142 43.5466 77.5384 43.699C77.3627 43.8513 77.14 43.9275 76.8705 43.9275C76.7884 43.9275 76.6361 43.8865 76.4134 43.8045C76.2025 43.7224 75.9798 43.5994 75.7455 43.4353C75.5111 43.283 75.3002 43.0955 75.1127 42.8728C74.9252 42.6384 74.8255 42.3748 74.8138 42.0818C74.7904 41.9529 74.7787 41.7771 74.7787 41.5545C74.7787 41.3201 74.7787 41.0506 74.7787 40.7459C74.7787 40.2771 74.7787 39.7556 74.7787 39.1814C74.7787 38.6072 74.7904 38.0271 74.8138 37.4412C74.7318 37.8631 74.6322 38.3025 74.515 38.7595C74.3978 39.2048 74.2513 39.6502 74.0755 40.0955C73.8998 40.5408 73.6947 40.9802 73.4603 41.4138C73.2259 41.8474 72.9564 42.2634 72.6517 42.6619C72.4877 42.8728 72.3119 43.0545 72.1244 43.2068C71.9486 43.3474 71.7728 43.4646 71.597 43.5584C71.4212 43.6638 71.2572 43.74 71.1048 43.7869C70.9525 43.8338 70.8353 43.8572 70.7533 43.8572C70.7064 43.8572 70.5951 43.8045 70.4193 43.699C70.2552 43.6052 70.056 43.4822 69.8216 43.3298C69.599 43.1658 69.3587 42.99 69.1009 42.8025C68.8431 42.6033 68.597 42.4099 68.3627 42.2224C68.1283 42.0232 67.9173 41.8416 67.7298 41.6775C67.5423 41.5017 67.4076 41.3611 67.3255 41.2556C67.2435 41.1384 67.1673 40.9392 67.097 40.658C67.0384 40.3767 66.9857 40.031 66.9388 39.6209C66.892 39.2107 66.8509 38.7478 66.8158 38.2322C66.7923 37.7166 66.7806 37.1658 66.7806 36.5798C66.7806 36.2634 66.7865 35.8533 66.7982 35.3494C66.8099 34.8455 66.8334 34.3064 66.8685 33.7322C66.9037 33.1463 66.9447 32.5603 66.9916 31.9744C67.0502 31.3767 67.1146 30.8435 67.1849 30.3748C67.267 29.8943 67.3607 29.5076 67.4662 29.2146C67.5716 28.9099 67.6947 28.7576 67.8353 28.7576C67.9291 28.7576 68.0931 28.7869 68.3275 28.8455C68.5619 28.8923 68.8021 28.9158 69.0482 28.9158C69.4115 28.9158 69.6634 28.8865 69.8041 28.8279C69.9564 28.7576 70.0677 28.7224 70.138 28.7224C70.2552 28.7224 70.3138 28.822 70.3138 29.0213C70.3138 29.0798 70.3138 29.1384 70.3138 29.197C70.3138 29.2439 70.3021 29.3025 70.2787 29.3728C70.267 29.4431 70.2377 29.6248 70.1908 29.9177C70.1556 30.2107 70.1087 30.5857 70.0502 31.0427C69.9916 31.4998 69.933 32.0154 69.8744 32.5896C69.8158 33.1521 69.7572 33.7439 69.6986 34.365C69.6517 34.9861 69.6107 35.6131 69.5755 36.2459C69.5404 36.8787 69.5228 37.4822 69.5228 38.0564C69.5228 38.4431 69.5287 38.8298 69.5404 39.2166C69.5638 39.6033 69.599 39.9548 69.6459 40.2713C69.6927 40.5877 69.7572 40.8455 69.8392 41.0447C69.9212 41.2322 70.0209 41.3259 70.138 41.3259C70.2435 41.3259 70.39 41.2791 70.5775 41.1853C70.7767 41.0798 71.0052 40.8748 71.263 40.5701C71.5326 40.2654 71.8255 39.8318 72.142 39.2693C72.4584 38.7068 72.7982 37.9627 73.1615 37.0369C73.5365 36.0994 73.9232 34.9568 74.3216 33.6091C74.7318 32.2498 75.1478 30.6326 75.5697 28.7576C75.5697 28.7224 75.5873 28.699 75.6224 28.6873C75.6693 28.6638 75.722 28.6521 75.7806 28.6521C75.933 28.6521 76.1263 28.6697 76.3607 28.7048C76.5951 28.7283 76.8177 28.7693 77.0287 28.8279C77.2513 28.8748 77.4388 28.9334 77.5912 29.0037C77.7552 29.074 77.8373 29.1502 77.8373 29.2322C77.8373 29.7595 77.8138 30.3338 77.767 30.9548C77.7201 31.5759 77.6673 32.2205 77.6087 32.8884C77.5502 33.5447 77.4974 34.2185 77.4505 34.9099C77.4037 35.6013 77.3802 36.2869 77.3802 36.9666C77.3802 38.1853 77.4154 39.3513 77.4857 40.4646C77.5677 41.5662 77.6732 42.5154 77.8021 43.3123ZM89.4212 30.7791C89.4095 31.1189 89.3744 31.4588 89.3158 31.7986C89.2689 32.1267 89.1986 32.4431 89.1048 32.7478C89.0111 33.0408 88.8939 33.3045 88.7533 33.5388C88.6244 33.7732 88.4779 33.9607 88.3138 34.1013C88.1732 34.2185 88.0619 34.2771 87.9798 34.2771C87.8978 34.2771 87.8275 34.2537 87.7689 34.2068C87.722 34.1599 87.681 34.1072 87.6459 34.0486C87.6107 33.99 87.5638 33.9548 87.5052 33.9431C87.4584 33.9314 87.3939 33.9373 87.3119 33.9607C87.2416 33.9724 87.1654 33.9724 87.0834 33.9607C87.013 33.949 86.9427 33.908 86.8724 33.8377C86.8138 33.7556 86.7728 33.615 86.7494 33.4158C86.7259 33.1931 86.7318 32.906 86.767 32.5545C86.8138 32.1912 86.8373 31.8396 86.8373 31.4998C86.8373 31.1951 86.8021 30.9431 86.7318 30.7439C86.6732 30.533 86.5619 30.4275 86.3978 30.4275C86.3158 30.4275 86.1693 30.492 85.9584 30.6209C85.7591 30.7381 85.5365 30.9959 85.2904 31.3943C85.0443 31.7927 84.7982 32.3728 84.5521 33.1345C84.306 33.8845 84.1068 34.8865 83.9545 36.1404C83.9545 37.7576 83.9662 39.0584 83.9896 40.0427C84.013 41.0271 84.0248 41.7947 84.0248 42.3455C84.0248 42.8142 84.013 43.1482 83.9896 43.3474C83.9662 43.5466 83.9076 43.6756 83.8138 43.7341C83.7552 43.7693 83.638 43.8103 83.4623 43.8572C83.2982 43.9158 83.1166 43.9685 82.9173 44.0154C82.7298 44.0623 82.5482 44.1033 82.3724 44.1384C82.1966 44.1736 82.0853 44.1853 82.0384 44.1736C82.0033 44.1619 81.9388 44.1209 81.8451 44.0506C81.7513 43.992 81.6517 43.9158 81.5462 43.822C81.4525 43.7283 81.3646 43.6287 81.2826 43.5232C81.2005 43.4295 81.1537 43.3474 81.142 43.2771C81.1185 43.1599 81.1068 42.8963 81.1068 42.4861C81.1185 42.0642 81.1244 41.5603 81.1244 40.9744C81.1361 40.3884 81.1478 39.7498 81.1595 39.0584C81.1712 38.3552 81.1771 37.658 81.1771 36.9666C81.1771 36.5213 81.1888 36.0291 81.2123 35.49C81.2474 34.9392 81.2826 34.3826 81.3177 33.8201C81.3646 33.2576 81.4115 32.7068 81.4584 32.1677C81.5052 31.6287 81.5462 31.1482 81.5814 30.7263C81.6283 30.2927 81.6634 29.9353 81.6869 29.6541C81.722 29.3611 81.7455 29.1853 81.7572 29.1267C81.7689 29.033 81.8099 28.9978 81.8802 29.0213C81.9623 29.0447 82.0443 29.0857 82.1263 29.1443C82.2201 29.2029 82.3021 29.2556 82.3724 29.3025C82.4427 29.3494 82.4896 29.3494 82.513 29.3025C82.5365 29.197 82.6244 29.1853 82.7767 29.2673C82.9291 29.3377 83.0697 29.4197 83.1986 29.5134C83.2455 29.572 83.2982 29.6248 83.3568 29.6716C83.4271 29.7068 83.4916 29.7595 83.5502 29.8298C83.6087 29.8884 83.6556 29.9705 83.6908 30.0759C83.7377 30.1814 83.7611 30.322 83.7611 30.4978C83.7611 30.6619 83.7728 30.908 83.7962 31.2361C83.8197 31.5642 83.849 31.9509 83.8841 32.3963C84.013 31.9744 84.1654 31.5291 84.3412 31.0603C84.5287 30.5916 84.7513 30.1638 85.0091 29.7771C85.267 29.3787 85.5716 29.0506 85.9232 28.7927C86.2748 28.5349 86.6966 28.406 87.1888 28.406C87.4584 28.406 87.7279 28.4588 87.9974 28.5642C88.267 28.6697 88.5072 28.8279 88.7181 29.0388C88.9408 29.2381 89.1166 29.4841 89.2455 29.7771C89.3744 30.0701 89.433 30.4041 89.4212 30.7791ZM102.183 37.0017C102.183 37.1306 102.189 37.283 102.201 37.4588C102.212 37.6345 102.218 37.8338 102.218 38.0564C102.218 38.3377 102.177 38.6892 102.095 39.1111C102.013 39.5213 101.878 39.9548 101.691 40.4119C101.515 40.8689 101.275 41.3259 100.97 41.783C100.665 42.24 100.29 42.6502 99.8451 43.0134C99.3998 43.3767 98.8724 43.6697 98.263 43.8923C97.6654 44.1267 96.9798 44.2439 96.2064 44.2439C95.515 44.2439 94.806 44.1091 94.0795 43.8396C93.3646 43.5818 92.7084 43.1775 92.1107 42.6267C91.5248 42.0642 91.0384 41.3552 90.6517 40.4998C90.2767 39.6326 90.0892 38.6013 90.0892 37.406C90.0892 36.656 90.183 35.9177 90.3705 35.1912C90.5697 34.4646 90.8275 33.7791 91.1439 33.1345C91.472 32.49 91.8529 31.8982 92.2865 31.3591C92.7318 30.8084 93.1947 30.3396 93.6752 29.9529C94.1673 29.5545 94.6712 29.2439 95.1869 29.0213C95.7142 28.7986 96.224 28.6873 96.7162 28.6873C97.5716 28.6873 98.2748 28.822 98.8255 29.0916C99.388 29.3611 99.8334 29.6951 100.161 30.0935C100.49 30.492 100.718 30.9197 100.847 31.3767C100.988 31.822 101.058 32.2263 101.058 32.5896C101.058 32.9412 100.97 33.3455 100.794 33.8025C100.63 34.2478 100.355 34.6756 99.9681 35.0857C99.5814 35.4841 99.0775 35.824 98.4564 36.1052C97.8353 36.3748 97.0736 36.5095 96.1712 36.5095C95.6908 36.5095 95.2572 36.4451 94.8705 36.3162C94.4955 36.1756 94.1615 36.0056 93.8685 35.8064C93.5755 35.5955 93.3236 35.3728 93.1127 35.1384C92.9134 34.8923 92.7435 34.6638 92.6029 34.4529C92.392 35.1795 92.2865 36.0291 92.2865 37.0017C92.2865 37.6697 92.3802 38.2732 92.5677 38.8123C92.767 39.3396 93.0365 39.7908 93.3763 40.1658C93.7162 40.5408 94.1205 40.8279 94.5892 41.0271C95.058 41.2263 95.5736 41.3259 96.1361 41.3259C96.8392 41.3259 97.4545 41.2088 97.9818 40.9744C98.5091 40.7283 98.9662 40.4236 99.3529 40.0603C99.7513 39.697 100.091 39.3045 100.372 38.8826C100.665 38.449 100.917 38.0564 101.128 37.7048C101.339 37.3416 101.521 37.0427 101.673 36.8084C101.837 36.574 101.995 36.4627 102.148 36.4744C102.218 36.4744 102.253 36.533 102.253 36.6502C102.253 36.7088 102.247 36.7673 102.236 36.8259C102.224 36.8845 102.206 36.9431 102.183 37.0017ZM96.892 30.4627C96.681 30.4627 96.4056 30.5095 96.0658 30.6033C95.7377 30.6853 95.3861 30.8377 95.0111 31.0603C94.6478 31.283 94.2845 31.5877 93.9212 31.9744C93.558 32.3494 93.2416 32.8298 92.972 33.4158C93.1361 33.3338 93.2767 33.2634 93.3939 33.2048C93.5228 33.1463 93.6107 33.117 93.6576 33.117C93.681 33.117 93.7162 33.1404 93.763 33.1873C94.0326 33.6443 94.3666 33.9724 94.765 34.1716C95.1752 34.3591 95.6322 34.4529 96.1361 34.4529C96.5345 34.4529 96.8744 34.3884 97.1556 34.2595C97.4486 34.1189 97.6888 33.9431 97.8763 33.7322C98.0638 33.5213 98.1986 33.2927 98.2806 33.0466C98.3627 32.7888 98.4037 32.5369 98.4037 32.2908C98.4037 31.7634 98.2689 31.3298 97.9994 30.99C97.7298 30.6384 97.3607 30.4627 96.892 30.4627ZM129.376 40.9392C129.435 41.0213 129.47 41.0798 129.482 41.115C129.494 41.1502 129.488 41.1795 129.464 41.2029C129.452 41.2146 129.429 41.2263 129.394 41.2381C129.359 41.2498 129.329 41.2673 129.306 41.2908C129.247 41.3259 129.23 41.3611 129.253 41.3963C129.288 41.4314 129.271 41.4959 129.201 41.5896C129.154 41.6248 129.148 41.6658 129.183 41.7127C129.218 41.7478 129.224 41.7771 129.201 41.8006C129.025 42.0701 128.89 42.24 128.796 42.3103C128.702 42.3103 128.62 42.322 128.55 42.3455C128.515 42.3572 128.492 42.3689 128.48 42.3806C128.445 42.4158 128.41 42.4627 128.374 42.5213C128.339 42.5681 128.31 42.615 128.286 42.6619C128.263 42.697 128.234 42.7263 128.199 42.7498C128.175 42.7615 128.146 42.7439 128.111 42.697C128.076 42.6384 128.029 42.6091 127.97 42.6091C127.923 42.6091 127.888 42.6267 127.865 42.6619C127.841 42.6853 127.812 42.7146 127.777 42.7498C127.742 42.7732 127.718 42.8025 127.706 42.8377C127.706 42.8611 127.724 42.8904 127.759 42.9256C127.794 42.949 127.876 42.9783 128.005 43.0134C128.298 43.0955 128.351 43.1775 128.163 43.2595C127.988 43.3298 127.648 43.3474 127.144 43.3123C126.663 43.2771 126.206 43.2478 125.773 43.2244C125.339 43.1892 124.906 43.1658 124.472 43.1541C124.05 43.1306 123.617 43.1131 123.171 43.1013C122.726 43.0896 122.251 43.0896 121.747 43.1013C121.079 43.1131 120.37 43.1423 119.62 43.1892C118.882 43.2361 118.144 43.2888 117.406 43.3474C116.679 43.406 115.976 43.4646 115.296 43.5232C114.628 43.5935 114.025 43.658 113.486 43.7166C112.947 43.7752 112.49 43.8279 112.115 43.8748C111.751 43.9334 111.517 43.9744 111.411 43.9978C111.306 44.033 111.23 44.0447 111.183 44.033C111.148 44.033 111.119 44.0037 111.095 43.9451C111.083 43.8865 111.072 43.7986 111.06 43.6814C111.048 43.5642 111.019 43.406 110.972 43.2068C110.937 43.0896 110.884 42.9724 110.814 42.8552C110.755 42.7263 110.714 42.6267 110.691 42.5564C110.656 42.3689 110.644 42.24 110.656 42.1697C110.667 42.0877 110.738 42.0349 110.867 42.0115L113.029 41.4314C112.9 40.6228 112.806 39.6795 112.747 38.6013C112.701 37.5115 112.677 36.3338 112.677 35.0681C112.677 33.9783 112.701 32.865 112.747 31.7283C112.794 30.5798 112.865 29.4256 112.958 28.2654C113.193 25.3357 113.386 23.0916 113.538 21.533C113.702 19.9627 113.855 19.0486 113.995 18.7908C114.031 18.7322 114.06 18.6795 114.083 18.6326C114.107 18.574 114.142 18.5447 114.189 18.5447C114.259 18.5095 114.312 18.5154 114.347 18.5623C114.382 18.6091 114.447 18.615 114.54 18.5798C114.564 18.5798 114.581 18.5681 114.593 18.5447C114.617 18.5095 114.646 18.4744 114.681 18.4392L114.716 18.4216C114.74 18.3982 114.786 18.3689 114.857 18.3338C115.033 18.3923 115.161 18.4451 115.244 18.492C115.29 18.5154 115.32 18.533 115.331 18.5447C115.402 18.5798 115.472 18.6443 115.542 18.7381C115.613 18.8201 115.677 18.8259 115.736 18.7556L115.771 18.7205C115.794 18.697 115.829 18.6853 115.876 18.6853C115.911 18.7088 115.947 18.7322 115.982 18.7556C116.017 18.7791 116.046 18.8025 116.07 18.8259C116.105 18.8611 116.134 18.8845 116.158 18.8963C116.216 18.9314 116.269 18.9783 116.316 19.0369C116.363 19.0955 116.41 19.2068 116.456 19.3709C116.503 19.5818 116.509 20.0154 116.474 20.6716C116.451 21.3279 116.404 22.1365 116.333 23.0974C116.275 24.0584 116.21 25.1365 116.14 26.3318C116.07 27.5271 116.029 28.7693 116.017 30.0584C116.005 30.656 115.988 31.3006 115.964 31.992C115.941 32.6716 115.917 33.3748 115.894 34.1013C115.87 34.8162 115.847 35.5252 115.824 36.2283C115.812 36.9314 115.806 37.5994 115.806 38.2322C115.806 38.7361 115.806 39.2107 115.806 39.656C115.818 40.0896 115.853 40.4646 115.911 40.781C117.189 40.5115 118.619 40.2713 120.201 40.0603C121.794 39.8494 123.494 39.7439 125.298 39.7439C125.954 39.7439 126.499 39.7791 126.933 39.8494C127.378 39.908 127.747 39.9959 128.04 40.1131C128.111 40.1365 128.21 40.1834 128.339 40.2537C128.468 40.3123 128.603 40.3826 128.744 40.4646C128.884 40.5466 129.013 40.6287 129.13 40.7107C129.247 40.7927 129.329 40.8689 129.376 40.9392ZM140.943 33.117C140.954 33.5271 140.919 34.031 140.837 34.6287C140.755 35.2146 140.661 35.8474 140.556 36.5271C140.451 37.1951 140.351 37.8806 140.257 38.5838C140.163 39.2869 140.117 39.949 140.117 40.5701C140.117 40.9802 140.146 41.3728 140.204 41.7478C140.263 42.1111 140.363 42.4275 140.503 42.697C140.585 42.8494 140.626 42.9841 140.626 43.1013C140.638 43.2185 140.632 43.324 140.609 43.4177C140.585 43.4998 140.562 43.5701 140.538 43.6287C140.515 43.699 140.515 43.7634 140.538 43.822C140.562 43.8806 140.556 43.9451 140.521 44.0154C140.486 44.0974 140.433 44.1677 140.363 44.2263C140.292 44.2966 140.21 44.3435 140.117 44.367C140.035 44.4021 139.958 44.3963 139.888 44.3494C139.759 44.2673 139.654 44.2205 139.572 44.2088C139.501 44.197 139.437 44.197 139.378 44.2088C139.331 44.2322 139.285 44.2556 139.238 44.2791C139.202 44.3025 139.156 44.3025 139.097 44.2791C138.898 44.1736 138.681 44.0506 138.447 43.9099C138.212 43.7693 138.06 43.617 137.99 43.4529C137.943 43.3826 137.896 43.2654 137.849 43.1013C137.814 42.9373 137.779 42.7439 137.744 42.5213C137.72 42.2986 137.697 42.0584 137.673 41.8006C137.65 41.5427 137.632 41.2908 137.62 41.0447C137.234 41.7713 136.818 42.3748 136.372 42.8552C135.939 43.3357 135.499 43.7166 135.054 43.9978C134.62 44.2908 134.187 44.4959 133.753 44.6131C133.331 44.7302 132.945 44.7888 132.593 44.7888C132.23 44.7888 131.908 44.742 131.626 44.6482C131.357 44.5545 131.146 44.4431 130.994 44.3142C130.419 43.74 130.009 43.2771 129.763 42.9256C129.529 42.5623 129.423 42.2693 129.447 42.0466C129.505 41.2966 129.687 40.6052 129.992 39.9724C130.296 39.3396 130.677 38.7595 131.134 38.2322C131.591 37.6931 132.101 37.2127 132.663 36.7908C133.238 36.3572 133.818 35.9763 134.404 35.6482C135.001 35.3084 135.587 35.0271 136.161 34.8045C136.736 34.5701 137.257 34.3826 137.726 34.242C137.702 33.6091 137.673 33.0584 137.638 32.5896C137.615 32.1091 137.574 31.7576 137.515 31.5349C137.339 30.8084 137.07 30.2693 136.706 29.9177C136.343 29.5545 135.904 29.3728 135.388 29.3728C135.06 29.3728 134.726 29.4959 134.386 29.742C134.058 29.9881 133.759 30.322 133.49 30.7439C133.22 31.1658 132.997 31.6521 132.822 32.2029C132.658 32.7537 132.57 33.3338 132.558 33.9431C132.558 34.0955 132.564 34.242 132.576 34.3826C132.587 34.5232 132.605 34.6697 132.628 34.822C132.64 34.9041 132.611 34.9627 132.54 34.9978C132.482 35.033 132.406 35.0623 132.312 35.0857C132.218 35.0974 132.119 35.1091 132.013 35.1209C131.908 35.1326 131.82 35.1502 131.749 35.1736C131.691 35.197 131.644 35.2146 131.609 35.2263C131.574 35.2263 131.538 35.2205 131.503 35.2088C131.468 35.1853 131.421 35.1502 131.363 35.1033C131.316 35.0564 131.245 34.9978 131.152 34.9275C131.058 34.8572 130.958 34.7986 130.853 34.7517C130.759 34.7048 130.671 34.6638 130.589 34.6287C130.519 34.5935 130.454 34.5642 130.396 34.5408C130.349 34.5056 130.326 34.4646 130.326 34.4177C130.326 33.6912 130.484 32.9412 130.8 32.1677C131.128 31.3943 131.562 30.6912 132.101 30.0584C132.652 29.4138 133.285 28.8865 133.999 28.4763C134.726 28.0662 135.494 27.8611 136.302 27.8611C136.958 27.8611 137.527 27.9607 138.007 28.1599C138.488 28.3591 138.898 28.617 139.238 28.9334C139.577 29.2498 139.853 29.6013 140.064 29.9881C140.286 30.3748 140.456 30.7673 140.574 31.1658C140.702 31.5525 140.79 31.9216 140.837 32.2732C140.896 32.6131 140.931 32.8943 140.943 33.117ZM137.761 36.2459C137.41 36.3748 137.023 36.5447 136.601 36.7556C136.179 36.9666 135.751 37.2185 135.318 37.5115C134.884 37.7927 134.451 38.1209 134.017 38.4959C133.583 38.8709 133.179 39.2869 132.804 39.7439C132.359 40.2713 132.036 40.74 131.837 41.1502C131.638 41.5603 131.515 41.9119 131.468 42.2048C131.421 42.4861 131.433 42.7088 131.503 42.8728C131.574 43.0369 131.656 43.1365 131.749 43.1716C132.113 43.3123 132.488 43.3298 132.874 43.2244C133.273 43.1072 133.665 42.908 134.052 42.6267C134.451 42.3338 134.831 41.9881 135.195 41.5896C135.57 41.1795 135.921 40.7634 136.249 40.3416C136.577 39.908 136.87 39.4861 137.128 39.0759C137.386 38.6541 137.597 38.2908 137.761 37.9861V36.2459ZM147.411 19.5818C147.4 19.6638 147.376 19.9275 147.341 20.3728C147.318 20.8181 147.283 21.3806 147.236 22.0603C147.201 22.7283 147.154 23.4783 147.095 24.3103C147.048 25.1306 146.995 25.9568 146.937 26.7888C146.89 27.6209 146.843 28.4236 146.796 29.197C146.761 29.9588 146.732 30.6209 146.708 31.1834C146.861 30.9256 147.06 30.6677 147.306 30.4099C147.552 30.1521 147.845 29.9236 148.185 29.7244C148.536 29.5134 148.935 29.3435 149.38 29.2146C149.837 29.0857 150.347 29.0213 150.91 29.0213C151.624 29.0213 152.333 29.1502 153.036 29.408C153.751 29.6658 154.39 30.0642 154.952 30.6033C155.515 31.1306 155.972 31.8103 156.324 32.6423C156.675 33.4627 156.851 34.4412 156.851 35.5779C156.851 36.5271 156.722 37.3884 156.464 38.1619C156.218 38.9353 155.89 39.6267 155.48 40.2361C155.081 40.8338 154.624 41.3552 154.109 41.8006C153.593 42.2459 153.072 42.615 152.544 42.908C152.017 43.2009 151.507 43.4177 151.015 43.5584C150.523 43.699 150.095 43.7693 149.732 43.7693C149.357 43.7693 149.005 43.7341 148.677 43.6638C148.361 43.5935 148.079 43.5056 147.833 43.4002C147.599 43.2947 147.411 43.1775 147.271 43.0486C147.142 42.9197 147.072 42.7908 147.06 42.6619C147.036 42.3923 147.031 42.1052 147.042 41.8006C147.066 41.4959 147.177 41.2439 147.376 41.0447C147.564 40.8572 147.722 40.7459 147.851 40.7107C147.992 40.6756 148.126 40.74 148.255 40.9041C148.384 41.0681 148.46 41.2498 148.484 41.449C148.519 41.6482 148.501 41.8006 148.431 41.906C148.396 41.9646 148.396 42.0173 148.431 42.0642C148.478 42.0994 148.542 42.1345 148.624 42.1697C148.718 42.1931 148.818 42.2166 148.923 42.24C149.04 42.2517 149.152 42.2576 149.257 42.2576C149.656 42.2576 150.107 42.0994 150.611 41.783C151.126 41.4548 151.607 41.0037 152.052 40.4295C152.497 39.8552 152.872 39.1814 153.177 38.408C153.482 37.6345 153.628 36.7966 153.617 35.8943C153.605 35.1795 153.517 34.5584 153.353 34.031C153.189 33.492 152.984 33.0408 152.738 32.6775C152.492 32.3025 152.21 31.9978 151.894 31.7634C151.589 31.5291 151.285 31.3533 150.98 31.2361C150.687 31.1072 150.406 31.0252 150.136 30.99C149.878 30.9548 149.667 30.9431 149.503 30.9548C148.812 31.0369 148.22 31.2771 147.728 31.6756C147.236 32.0623 146.878 32.5545 146.656 33.1521C146.62 34.3943 146.574 35.6482 146.515 36.9138C146.468 38.1677 146.445 39.3396 146.445 40.4295C146.445 40.9685 146.451 41.4841 146.462 41.9763C146.486 42.4685 146.527 42.9021 146.585 43.2771C146.597 43.3943 146.591 43.4763 146.568 43.5232C146.556 43.5701 146.527 43.5935 146.48 43.5935C146.433 43.5935 146.38 43.5818 146.322 43.5584C146.263 43.5349 146.21 43.5115 146.163 43.4881C146.117 43.4646 146.105 43.4939 146.128 43.5759C146.152 43.658 146.163 43.74 146.163 43.822C146.175 43.9158 146.158 43.9802 146.111 44.0154C146.076 44.0623 145.97 44.033 145.794 43.9275C145.701 43.8455 145.583 43.781 145.443 43.7341C145.314 43.699 145.267 43.7283 145.302 43.822C145.314 43.8572 145.279 43.8748 145.197 43.8748C145.115 43.8865 145.015 43.8748 144.898 43.8396C144.792 43.8045 144.687 43.74 144.581 43.6463C144.488 43.5525 144.423 43.4177 144.388 43.242C144.329 42.8787 144.271 42.492 144.212 42.0818C144.165 41.6599 144.124 41.2029 144.089 40.7107C144.054 40.2068 144.025 39.656 144.001 39.0584C143.978 38.449 143.966 37.7634 143.966 37.0017C143.966 36.4275 143.966 35.8064 143.966 35.1384C143.978 34.4588 144.001 33.7146 144.036 32.906C144.083 31.4412 144.142 29.9939 144.212 28.5642C144.283 27.1345 144.359 25.8279 144.441 24.6443C144.523 23.449 144.611 22.4236 144.704 21.5681C144.81 20.7127 144.921 20.1267 145.038 19.8103C145.062 19.6931 145.109 19.6228 145.179 19.5994C145.261 19.5759 145.408 19.5349 145.619 19.4763C145.818 19.4177 146.023 19.3591 146.234 19.3006C146.456 19.242 146.626 19.2302 146.744 19.2654C146.79 19.2888 146.855 19.2888 146.937 19.2654C147.019 19.242 147.095 19.2302 147.165 19.2302C147.247 19.2302 147.312 19.2537 147.359 19.3006C147.417 19.3474 147.435 19.4412 147.411 19.5818ZM170.878 37.0017C170.878 37.1306 170.884 37.283 170.896 37.4588C170.908 37.6345 170.913 37.8338 170.913 38.0564C170.913 38.3377 170.872 38.6892 170.79 39.1111C170.708 39.5213 170.574 39.9548 170.386 40.4119C170.21 40.8689 169.97 41.3259 169.665 41.783C169.361 42.24 168.986 42.6502 168.54 43.0134C168.095 43.3767 167.568 43.6697 166.958 43.8923C166.361 44.1267 165.675 44.2439 164.902 44.2439C164.21 44.2439 163.501 44.1091 162.775 43.8396C162.06 43.5818 161.404 43.1775 160.806 42.6267C160.22 42.0642 159.734 41.3552 159.347 40.4998C158.972 39.6326 158.785 38.6013 158.785 37.406C158.785 36.656 158.878 35.9177 159.066 35.1912C159.265 34.4646 159.523 33.7791 159.839 33.1345C160.167 32.49 160.548 31.8982 160.982 31.3591C161.427 30.8084 161.89 30.3396 162.37 29.9529C162.863 29.5545 163.367 29.2439 163.882 29.0213C164.41 28.7986 164.919 28.6873 165.411 28.6873C166.267 28.6873 166.97 28.822 167.521 29.0916C168.083 29.3611 168.529 29.6951 168.857 30.0935C169.185 30.492 169.413 30.9197 169.542 31.3767C169.683 31.822 169.753 32.2263 169.753 32.5896C169.753 32.9412 169.665 33.3455 169.49 33.8025C169.326 34.2478 169.05 34.6756 168.663 35.0857C168.277 35.4841 167.773 35.824 167.152 36.1052C166.531 36.3748 165.769 36.5095 164.867 36.5095C164.386 36.5095 163.952 36.4451 163.566 36.3162C163.191 36.1756 162.857 36.0056 162.564 35.8064C162.271 35.5955 162.019 35.3728 161.808 35.1384C161.609 34.8923 161.439 34.6638 161.298 34.4529C161.087 35.1795 160.982 36.0291 160.982 37.0017C160.982 37.6697 161.076 38.2732 161.263 38.8123C161.462 39.3396 161.732 39.7908 162.072 40.1658C162.411 40.5408 162.816 40.8279 163.285 41.0271C163.753 41.2263 164.269 41.3259 164.831 41.3259C165.535 41.3259 166.15 41.2088 166.677 40.9744C167.204 40.7283 167.661 40.4236 168.048 40.0603C168.447 39.697 168.786 39.3045 169.068 38.8826C169.361 38.449 169.613 38.0564 169.824 37.7048C170.035 37.3416 170.216 37.0427 170.369 36.8084C170.533 36.574 170.691 36.4627 170.843 36.4744C170.913 36.4744 170.949 36.533 170.949 36.6502C170.949 36.7088 170.943 36.7673 170.931 36.8259C170.919 36.8845 170.902 36.9431 170.878 37.0017ZM165.587 30.4627C165.376 30.4627 165.101 30.5095 164.761 30.6033C164.433 30.6853 164.081 30.8377 163.706 31.0603C163.343 31.283 162.98 31.5877 162.617 31.9744C162.253 32.3494 161.937 32.8298 161.667 33.4158C161.831 33.3338 161.972 33.2634 162.089 33.2048C162.218 33.1463 162.306 33.117 162.353 33.117C162.376 33.117 162.411 33.1404 162.458 33.1873C162.728 33.6443 163.062 33.9724 163.46 34.1716C163.87 34.3591 164.327 34.4529 164.831 34.4529C165.23 34.4529 165.57 34.3884 165.851 34.2595C166.144 34.1189 166.384 33.9431 166.572 33.7322C166.759 33.5213 166.894 33.2927 166.976 33.0466C167.058 32.7888 167.099 32.5369 167.099 32.2908C167.099 31.7634 166.964 31.3298 166.695 30.99C166.425 30.6384 166.056 30.4627 165.587 30.4627ZM176.732 19.9509C176.732 20.115 176.72 20.4373 176.697 20.9177C176.673 21.3982 176.644 21.9783 176.609 22.658C176.574 23.3259 176.533 24.0642 176.486 24.8728C176.451 25.6697 176.41 26.4724 176.363 27.281C176.316 28.0779 176.275 28.8513 176.24 29.6013C176.204 30.3513 176.181 31.0076 176.169 31.5701C176.146 31.9099 176.128 32.2849 176.117 32.6951C176.117 33.1052 176.117 33.5447 176.117 34.0134C176.117 34.6345 176.117 35.2849 176.117 35.9646C176.128 36.6326 176.14 37.2947 176.152 37.9509C176.163 38.6072 176.175 39.24 176.187 39.8494C176.21 40.447 176.228 40.9861 176.24 41.4666C176.251 41.947 176.257 42.3513 176.257 42.6795C176.269 42.9959 176.275 43.1951 176.275 43.2771C176.275 43.4412 176.245 43.5642 176.187 43.6463C176.14 43.74 176.076 43.7986 175.994 43.822C175.923 43.8572 175.847 43.8631 175.765 43.8396C175.683 43.8279 175.613 43.8045 175.554 43.7693C175.484 43.7341 175.425 43.6931 175.378 43.6463C175.343 43.5994 175.314 43.5642 175.29 43.5408C175.267 43.5173 175.244 43.5115 175.22 43.5232C175.208 43.5349 175.197 43.5818 175.185 43.6638C175.15 43.9685 175.079 44.197 174.974 44.3494C174.88 44.5017 174.775 44.6013 174.658 44.6482C174.552 44.7068 174.452 44.7244 174.359 44.7009C174.265 44.6775 174.206 44.6365 174.183 44.5779C174.16 44.5193 174.119 44.4841 174.06 44.4724C174.013 44.4607 173.96 44.449 173.902 44.4373C173.843 44.4373 173.785 44.4197 173.726 44.3845C173.679 44.3611 173.65 44.3025 173.638 44.2088C173.544 43.8103 173.486 43.3064 173.462 42.697C173.439 42.0759 173.427 41.3787 173.427 40.6052C173.427 39.9373 173.433 39.2166 173.445 38.4431C173.456 37.6697 173.462 36.8787 173.462 36.0701C173.462 35.6013 173.462 35.1384 173.462 34.6814C173.462 34.2127 173.451 33.7381 173.427 33.2576V32.1502C173.427 31.2009 173.451 30.2517 173.497 29.3025C173.544 28.3416 173.603 27.4216 173.673 26.5427C173.744 25.6638 173.82 24.8377 173.902 24.0642C173.984 23.2908 174.054 22.6052 174.113 22.0076C174.171 21.4099 174.218 20.9236 174.253 20.5486C174.288 20.1736 174.3 19.9392 174.288 19.8455C174.277 19.7634 174.283 19.7048 174.306 19.6697C174.341 19.6345 174.382 19.617 174.429 19.617C174.488 19.6052 174.546 19.5994 174.605 19.5994C174.663 19.5877 174.716 19.5701 174.763 19.5466C174.845 19.4998 174.91 19.4881 174.956 19.5115C175.015 19.5232 175.062 19.5466 175.097 19.5818C175.132 19.617 175.161 19.658 175.185 19.7048C175.22 19.74 175.267 19.7576 175.326 19.7576C175.396 19.7459 175.449 19.7283 175.484 19.7048C175.531 19.6697 175.566 19.6404 175.589 19.617C175.624 19.5818 175.654 19.5525 175.677 19.5291C175.712 19.5056 175.753 19.4998 175.8 19.5115C175.894 19.5349 175.982 19.5525 176.064 19.5642C176.158 19.5642 176.204 19.5466 176.204 19.5115C176.228 19.4177 176.263 19.3767 176.31 19.3884C176.357 19.3884 176.415 19.4177 176.486 19.4763C176.556 19.5349 176.615 19.5994 176.661 19.6697C176.708 19.7283 176.732 19.822 176.732 19.9509Z" fill="#999999"/>
<ellipse cx="21.9787" cy="34.7628" rx="2.71123" ry="2.67406" fill="white"/>
<defs>
<filter id="filter0_d_20_3476" x="0.711914" y="0.0715179" width="206.04" height="66.6264" filterUnits="userSpaceOnUse" color-interpolation-filters="sRGB">
<feFlood flood-opacity="0" result="BackgroundImageFix"/>
<feColorMatrix in="SourceAlpha" type="matrix" values="0 0 0 0 0 0 0 0 0 0 0 0 0 0 0 0 0 0 127 0" result="hardAlpha"/>
<feOffset dy="4"/>
<feGaussianBlur stdDeviation="2"/>
<feComposite in2="hardAlpha" operator="out"/>
<feColorMatrix type="matrix" values="0 0 0 0 0 0 0 0 0 0 0 0 0 0 0 0 0 0 0.12 0"/>
<feBlend mode="normal" in2="BackgroundImageFix" result="effect1_dropShadow_20_3476"/>
<feBlend mode="normal" in="SourceGraphic" in2="effect1_dropShadow_20_3476" result="shape"/>
</filter>
</defs>
</svg>
