<svg width="281" height="20" viewBox="0 0 281 20" fill="none" xmlns="http://www.w3.org/2000/svg">
<rect x="26.8771" width="19.9336" height="20" rx="8" fill="#459A57"/>
<path d="M38.3555 5.51562V14H36.586V7.19141H36.5391L34.5938 8.41016V6.85156L36.6914 5.51562H38.3555Z" fill="white"/>
<rect x="52.7906" width="19.9336" height="20" rx="8" fill="#459A57"/>
<path d="M59.7633 14L59.7516 12.7227L62.7985 9.92188C63.5954 9.16016 64.0172 8.69141 64.0172 8.02344C64.0172 7.27344 63.443 6.80469 62.6696 6.80469C61.8727 6.80469 61.3571 7.30859 61.3571 8.11719H59.6813C59.6696 6.45312 60.9 5.39844 62.693 5.39844C64.5094 5.39844 65.7164 6.42969 65.7164 7.90625C65.7164 8.86719 65.2477 9.66406 63.5016 11.2461L62.2125 12.5V12.5469H65.8336V14H59.7633Z" fill="white"/>
<rect x="78.7043" width="19.9336" height="20" rx="8" fill="#F2A140"/>
<path d="M88.6476 14.1172C86.7843 14.1172 85.4484 13.0859 85.4132 11.6094H87.1945C87.2296 12.2422 87.839 12.6641 88.6593 12.6641C89.5031 12.6641 90.1124 12.1836 90.1007 11.5039C90.1124 10.8125 89.4913 10.3203 88.4953 10.3203H87.7101V9.01953H88.4953C89.3273 9.01953 89.9132 8.5625 89.9132 7.89453C89.9132 7.25 89.421 6.80469 88.671 6.80469C87.921 6.80469 87.2999 7.22656 87.2765 7.87109H85.589C85.6124 6.40625 86.9367 5.39844 88.671 5.39844C90.4406 5.39844 91.6242 6.44141 91.6124 7.78906C91.6242 8.73828 90.9562 9.41797 90.007 9.58203V9.65234C91.2492 9.80469 91.9406 10.5664 91.9288 11.6211C91.9406 13.0742 90.5578 14.1172 88.6476 14.1172Z" fill="white"/>
<rect x="104.618" width="19.9336" height="20" rx="8" fill="#F2A140"/>
<path d="M111.169 12.5V11.1055L114.755 5.51562H116.969V11.082H118.048V12.5H116.969V14H115.294V12.5H111.169ZM112.95 11.082H115.317V7.44922H115.235L112.95 11.0117V11.082Z" fill="white"/>
<rect x="130.531" width="19.9336" height="20" rx="8" fill="#F2A140"/>
<path d="M140.522 14.1172C138.752 14.1172 137.463 13.0742 137.428 11.6094H139.139C139.174 12.2773 139.783 12.7227 140.522 12.7227C141.401 12.7227 142.022 12.1016 142.022 11.2227C142.022 10.3203 141.389 9.69922 140.498 9.6875C139.865 9.6875 139.42 9.92188 139.162 10.4023H137.569L138.026 5.51562H143.252V6.95703H139.479L139.244 9.10156H139.315C139.631 8.67969 140.264 8.38672 141.014 8.38672C142.573 8.38672 143.733 9.54688 143.733 11.1758C143.733 12.8867 142.432 14.1172 140.522 14.1172Z" fill="white"/>
<rect x="156.445" width="19.9336" height="20" rx="8" fill="#F2A140"/>
<path d="M166.506 14.1172C164.748 14.1055 163.084 13.0625 163.084 9.95703C163.084 7.09766 164.455 5.39844 166.576 5.39844C168.287 5.39844 169.447 6.47656 169.623 7.87109H167.889C167.748 7.27344 167.256 6.91016 166.576 6.91016C165.428 6.91016 164.818 7.95312 164.807 9.61719H164.889C165.275 8.86719 166.119 8.42188 167.057 8.42188C168.58 8.42188 169.717 9.57031 169.717 11.1641C169.717 12.8867 168.416 14.1289 166.506 14.1172ZM166.494 12.7227C167.361 12.7227 168.006 12.0664 168.006 11.2109C168.006 10.3672 167.385 9.69922 166.517 9.69922C165.65 9.69922 164.994 10.3789 164.982 11.2109C164.994 12.043 165.627 12.7227 166.494 12.7227Z" fill="white"/>
<rect x="182.359" width="19.9336" height="20" rx="8" fill="#D34B3B"/>
<path d="M190.369 14L193.943 7.01562V6.95703H189.783V5.51562H195.771V6.98047L192.197 14H190.369Z" fill="white"/>
<rect x="208.272" width="19.9336" height="20" rx="8" fill="#D34B3B"/>
<path d="M218.233 14.1172C216.3 14.1172 214.905 13.0977 214.905 11.7148C214.905 10.6484 215.725 9.78125 216.78 9.61719V9.55859C215.866 9.38281 215.233 8.60938 215.233 7.68359C215.233 6.35938 216.499 5.39844 218.233 5.39844C219.968 5.39844 221.233 6.35938 221.245 7.68359C221.233 8.62109 220.589 9.38281 219.698 9.55859V9.61719C220.729 9.78125 221.561 10.6484 221.561 11.7148C221.561 13.0977 220.167 14.1172 218.233 14.1172ZM218.233 12.7695C219.124 12.7695 219.722 12.2656 219.722 11.5391C219.722 10.8008 219.1 10.2617 218.233 10.2617C217.366 10.2617 216.733 10.8008 216.745 11.5391C216.733 12.2656 217.331 12.7695 218.233 12.7695ZM218.233 9.01953C218.983 9.01953 219.522 8.53906 219.522 7.85938C219.522 7.20312 218.995 6.73438 218.233 6.73438C217.472 6.73438 216.956 7.19141 216.956 7.85938C216.956 8.53906 217.483 9.01953 218.233 9.01953Z" fill="white"/>
<rect x="234.186" width="19.9336" height="20" rx="8" fill="#D34B3B"/>
<path d="M244.059 5.39844C245.817 5.41016 247.481 6.45312 247.481 9.53516C247.493 12.418 246.122 14.1172 243.989 14.1172C242.278 14.1172 241.118 13.0508 240.942 11.6094H242.676C242.817 12.2305 243.309 12.6055 243.989 12.6055C245.149 12.6055 245.758 11.5742 245.758 9.875H245.688C245.29 10.625 244.458 11.0703 243.508 11.0703C241.985 11.0703 240.86 9.92188 240.848 8.33984C240.848 6.62891 242.137 5.38672 244.059 5.39844ZM244.071 6.78125C243.204 6.78125 242.559 7.44922 242.571 8.29297C242.571 9.125 243.192 9.78125 244.059 9.78125C244.915 9.78125 245.583 9.10156 245.583 8.28125C245.571 7.47266 244.938 6.78125 244.071 6.78125Z" fill="white"/>
<rect x="260.1" width="19.9336" height="20" rx="8" fill="#D34B3B"/>
<path d="M267.617 5.51562V14H265.848V7.19141H265.801L263.856 8.41016V6.85156L265.953 5.51562H267.617ZM272.879 14.1172C270.758 14.1172 269.469 12.5352 269.469 9.75781C269.469 6.98047 270.758 5.39844 272.879 5.39844C275 5.39844 276.289 6.99219 276.289 9.75781C276.289 12.5469 275 14.1172 272.879 14.1172ZM272.879 12.6641C273.863 12.6641 274.496 11.7148 274.484 9.75781C274.484 7.82422 273.863 6.83984 272.879 6.83984C271.895 6.83984 271.273 7.82422 271.273 9.75781C271.262 11.7148 271.895 12.6641 272.879 12.6641Z" fill="white"/>
<rect x="0.96344" width="19.9336" height="20" rx="8" fill="#459A57"/>
<path d="M10.9303 14.1172C8.80916 14.1172 7.5201 12.5352 7.5201 9.75781C7.5201 6.98047 8.80916 5.39844 10.9303 5.39844C13.0513 5.39844 14.3404 6.99219 14.3404 9.75781C14.3404 12.5469 13.0513 14.1172 10.9303 14.1172ZM10.9303 12.6641C11.9146 12.6641 12.5474 11.7148 12.5357 9.75781C12.5357 7.82422 11.9146 6.83984 10.9303 6.83984C9.94588 6.83984 9.32478 7.82422 9.32478 9.75781C9.31307 11.7148 9.94588 12.6641 10.9303 12.6641Z" fill="white"/>
</svg>
