<svg width="30" height="30" viewBox="0 0 30 30" fill="none" xmlns="http://www.w3.org/2000/svg">
<path d="M6.75 3H23C23.9946 3 24.9484 3.39509 25.6517 4.09835C26.3549 4.80161 26.75 5.75544 26.75 6.75V23C26.75 23.9946 26.3549 24.9484 25.6517 25.6517C24.9484 26.3549 23.9946 26.75 23 26.75H6.75C5.75544 26.75 4.80161 26.3549 4.09835 25.6517C3.39509 24.9484 3 23.9946 3 23V6.75C3 5.75544 3.39509 4.80161 4.09835 4.09835C4.80161 3.39509 5.75544 3 6.75 3ZM6.75 4.25C6.08696 4.25 5.45107 4.51339 4.98223 4.98223C4.51339 5.45107 4.25 6.08696 4.25 6.75V21.2375L9.6125 15.8625L12.7375 18.9875L18.9875 12.7375L25.5 19.25V6.75C25.5 6.08696 25.2366 5.45107 24.7678 4.98223C24.2989 4.51339 23.663 4.25 23 4.25H6.75ZM12.7375 20.7625L9.6125 17.6375L4.25 23C4.25 23.663 4.51339 24.2989 4.98223 24.7678C5.45107 25.2366 6.08696 25.5 6.75 25.5H23C23.663 25.5 24.2989 25.2366 24.7678 24.7678C25.2366 24.2989 25.5 23.663 25.5 23V21.0125L18.9875 14.5125L12.7375 20.7625ZM9.875 6.75C10.7038 6.75 11.4987 7.07924 12.0847 7.66529C12.6708 8.25134 13 9.0462 13 9.875C13 10.7038 12.6708 11.4987 12.0847 12.0847C11.4987 12.6708 10.7038 13 9.875 13C9.0462 13 8.25134 12.6708 7.66529 12.0847C7.07924 11.4987 6.75 10.7038 6.75 9.875C6.75 9.0462 7.07924 8.25134 7.66529 7.66529C8.25134 7.07924 9.0462 6.75 9.875 6.75ZM9.875 8C9.37772 8 8.90081 8.19754 8.54917 8.54917C8.19754 8.90081 8 9.37772 8 9.875C8 10.3723 8.19754 10.8492 8.54917 11.2008C8.90081 11.5525 9.37772 11.75 9.875 11.75C10.3723 11.75 10.8492 11.5525 11.2008 11.2008C11.5525 10.8492 11.75 10.3723 11.75 9.875C11.75 9.37772 11.5525 8.90081 11.2008 8.54917C10.8492 8.19754 10.3723 8 9.875 8Z" fill="#999999"/>
</svg>
