<svg width="28" height="17" viewBox="0 0 28 17" fill="none" xmlns="http://www.w3.org/2000/svg">
<rect x="0.5" y="0.5" width="27" height="16" rx="8" stroke="#F2A140"/>
<path d="M13.6582 11.543V12.1777H5.70898V11.543H9.2832V9.66797H6.64648V5.22461H7.41797V6.79688H11.9297V5.22461H12.6816V9.66797H10.0352V11.543H13.6582ZM7.41797 9.04297H11.9297V7.42188H7.41797V9.04297ZM22.2617 9.21875V9.84375H14.3418V9.21875H17.916V8.35938H15.3965V4.86328H21.2754V5.48828H16.168V6.29883H21.041V6.88477H16.168V7.74414H21.3242V8.35938H18.6777V9.21875H22.2617ZM18.3066 10.498C20.2109 10.4883 21.2852 10.9766 21.2949 11.8848C21.2852 12.793 20.2109 13.2715 18.3066 13.2715C16.3828 13.2715 15.3086 12.793 15.3086 11.8848C15.3086 10.9766 16.3828 10.4883 18.3066 10.498ZM18.3066 11.0742C16.8711 11.0742 16.0703 11.3672 16.0801 11.8848C16.0703 12.4121 16.8711 12.6855 18.3066 12.6758C19.7227 12.6855 20.5234 12.4121 20.5234 11.8848C20.5234 11.3672 19.7227 11.0742 18.3066 11.0742Z" fill="#F2A140"/>
</svg>
