<svg width="167" height="57" viewBox="0 0 167 57" fill="none" xmlns="http://www.w3.org/2000/svg">
<g filter="url(#filter0_d_273_321)">
<path d="M4.74838 29.7375C4.34808 29.3693 4.31675 28.7477 4.6779 28.3391L23.0708 7.5295C23.2491 7.32776 23.5009 7.20612 23.7694 7.19205L159.584 0.0709949C160.129 0.0424309 160.595 0.455759 160.632 0.999991L161.977 21.0226L162.794 40.7455C162.817 41.2941 162.393 41.7597 161.845 41.7884L26.0376 48.909C25.7696 48.9231 25.5074 48.8288 25.3102 48.6473L4.74838 29.7375Z" fill="#FBF1E2"/>
</g>
<path d="M52.0488 20.9546C52.0488 21.5112 51.9609 22.0727 51.7851 22.6391C51.6093 23.2055 51.3505 23.7524 51.0087 24.2798C50.6767 24.8071 50.2714 25.3051 49.7929 25.7739C49.3242 26.2426 48.7968 26.6577 48.2109 27.019C47.6347 27.3706 47.0097 27.6587 46.3359 27.8833C45.662 28.1079 44.9589 28.2446 44.2265 28.2934C44.0898 28.313 43.9531 28.313 43.8163 28.2934C43.6894 28.2641 43.5722 28.2348 43.4648 28.2055C43.3867 28.1762 43.2744 28.1323 43.1279 28.0737C42.9911 28.0151 42.9033 27.9712 42.8642 27.9419C42.8056 27.8833 42.7226 27.7954 42.6152 27.6782C42.5175 27.5512 42.4443 27.4487 42.3954 27.3706C42.3661 27.3217 42.3515 27.2436 42.3515 27.1362C42.3613 27.019 42.3661 26.8872 42.3661 26.7407C42.3661 26.604 42.3613 26.4624 42.3515 26.3159C42.3515 26.1596 42.3661 26.0717 42.3954 26.0522C42.415 26.0327 42.4589 26.0522 42.5273 26.1108C42.6054 26.1596 42.7519 26.1987 42.9667 26.228C43.0546 26.2475 43.1523 26.2524 43.2597 26.2426C43.3769 26.2329 43.4892 26.2182 43.5966 26.1987C43.9384 26.1694 44.3339 26.0717 44.7831 25.9057C45.2324 25.7397 45.6913 25.52 46.1601 25.2466C46.6386 24.9731 47.1074 24.6557 47.5663 24.2944C48.0253 23.9233 48.4306 23.5278 48.7822 23.1079C49.1435 22.688 49.4316 22.2436 49.6464 21.7749C49.871 21.3061 49.9833 20.8325 49.9833 20.354C49.9833 19.9829 49.9101 19.6264 49.7636 19.2846C49.6171 18.9331 49.3876 18.5864 49.0751 18.2446C48.8798 18.02 48.499 17.8442 47.9326 17.7173C47.3661 17.5903 46.6874 17.5268 45.8964 17.5268C45.2226 17.5268 44.4999 17.5805 43.7285 17.688C42.957 17.7954 42.1904 17.9712 41.4286 18.2153C40.7744 18.4301 40.2177 18.6206 39.7587 18.7866C39.2997 18.9428 38.9042 19.0844 38.5722 19.2114C38.2499 19.3383 37.9814 19.4458 37.7665 19.5337C37.5615 19.6216 37.3808 19.6997 37.2245 19.768C37.0683 19.8266 36.9267 19.8852 36.7997 19.9438C36.6728 19.9926 36.5361 20.0366 36.3896 20.0757C36.2529 20.1245 36.1454 20.1538 36.0673 20.1635C35.9892 20.1635 35.9257 20.1635 35.8769 20.1635C35.7988 20.144 35.7402 20.1245 35.7011 20.1049C35.6718 20.0757 35.6328 20.0464 35.5839 20.0171C35.5449 19.9878 35.5058 19.978 35.4667 19.9878C35.4277 19.9878 35.3886 19.9926 35.3495 20.0024C35.3203 20.0122 35.2861 20.0122 35.247 20.0024C35.2079 19.9926 35.1689 19.9585 35.1298 19.8999C35.0712 19.7924 35.0322 19.7094 35.0126 19.6508C34.9833 19.5825 34.9687 19.5288 34.9687 19.4897C34.9589 19.4409 34.9589 19.3969 34.9687 19.3579C34.9785 19.3188 34.9931 19.27 35.0126 19.2114C35.0224 19.1528 35.0224 19.0991 35.0126 19.0503C35.0029 19.0014 34.998 18.9575 34.998 18.9184C34.9882 18.8794 34.9931 18.8403 35.0126 18.8012C35.0224 18.7524 35.0615 18.6987 35.1298 18.6401C35.2665 18.5327 35.4911 18.3667 35.8036 18.1421C36.1161 17.9174 36.5019 17.6733 36.9609 17.4096C37.4296 17.1362 37.9619 16.8579 38.5576 16.5747C39.163 16.2915 39.8173 16.0327 40.5204 15.7983C41.2333 15.5542 41.9902 15.354 42.791 15.1977C43.6015 15.0317 44.4462 14.9389 45.3251 14.9194C46.204 14.8999 46.9755 14.9975 47.6396 15.2124C48.3134 15.4174 48.8994 15.6958 49.3974 16.0473C49.8954 16.3891 50.3105 16.7846 50.6425 17.2339C50.9843 17.6733 51.2578 18.1176 51.4628 18.5669C51.6679 19.0161 51.8144 19.4507 51.9023 19.8706C51.9902 20.2905 52.039 20.6518 52.0488 20.9546ZM41.9999 18.9917C41.9902 19.0405 41.9706 19.2065 41.9413 19.4897C41.9218 19.7729 41.8925 20.1391 41.8535 20.5883C41.8242 21.0278 41.79 21.5307 41.7509 22.0971C41.7119 22.6635 41.6728 23.2544 41.6337 23.8696C41.5947 24.4848 41.5556 25.1098 41.5165 25.7446C41.4872 26.3696 41.4677 26.9702 41.4579 27.5464C41.4384 28.1323 41.4238 28.7378 41.414 29.3628C41.4042 29.978 41.3994 30.603 41.3994 31.2378C41.3994 31.9702 41.414 32.6928 41.4433 33.4057C41.4824 34.1186 41.5458 34.8071 41.6337 35.4712C41.6728 35.6958 41.6581 35.8716 41.5898 35.9985C41.5214 36.1255 41.4872 36.2378 41.4872 36.3354C41.4872 36.3647 41.5019 36.394 41.5312 36.4233C41.5605 36.4428 41.5654 36.4624 41.5458 36.4819C41.5165 36.5307 41.4628 36.5503 41.3847 36.5405C41.3163 36.5307 41.2529 36.5014 41.1943 36.4526C41.165 36.4233 41.1406 36.3891 41.121 36.3501C41.1015 36.3012 41.082 36.2622 41.0624 36.2329C41.0429 36.2036 41.0185 36.1889 40.9892 36.1889C40.9599 36.1792 40.916 36.1987 40.8574 36.2475C40.8085 36.2964 40.7499 36.3647 40.6816 36.4526C40.623 36.5405 40.5595 36.6333 40.4911 36.7309C40.4228 36.8188 40.3544 36.8969 40.2861 36.9653C40.2177 37.0434 40.1494 37.0923 40.081 37.1118C40.0224 37.1313 39.9492 37.1508 39.8613 37.1704C39.7831 37.1899 39.7343 37.1606 39.7148 37.0825C39.6953 37.0434 39.6757 37.019 39.6562 37.0092C39.6367 36.9995 39.6122 36.9848 39.5829 36.9653C39.5536 36.9555 39.5244 36.936 39.4951 36.9067C39.4755 36.8872 39.4609 36.8383 39.4511 36.7602C39.4023 36.5942 39.3437 36.4721 39.2753 36.394C39.2167 36.3061 39.1874 36.2085 39.1874 36.101C39.1679 35.935 39.1191 35.4565 39.041 34.6655C38.9726 33.8745 38.9384 32.7807 38.9384 31.3842C38.9384 30.8276 38.9433 30.2221 38.9531 29.5678C38.9726 28.9135 39.0068 28.2202 39.0556 27.4878C39.1044 26.8335 39.163 26.1255 39.2314 25.3637C39.2997 24.602 39.3681 23.8549 39.4365 23.1225C39.5146 22.3901 39.5829 21.7065 39.6415 21.0717C39.7001 20.437 39.7441 19.9145 39.7734 19.5044C39.7831 19.436 39.8076 19.3921 39.8466 19.3725C39.8857 19.353 39.9394 19.3383 40.0078 19.3286C40.0761 19.3188 40.164 19.3091 40.2714 19.2993C40.3788 19.2798 40.5058 19.2407 40.6523 19.1821C40.7695 19.1235 40.9062 19.0649 41.0624 19.0063C41.2285 18.9477 41.3798 18.9038 41.5165 18.8745C41.663 18.8354 41.7802 18.8208 41.8681 18.8305C41.9658 18.8403 42.0097 18.894 41.9999 18.9917ZM61.7021 36.7602C61.7021 36.8481 61.6288 36.9555 61.4824 37.0825C61.3359 37.2094 61.1503 37.2729 60.9257 37.2729C60.8574 37.2729 60.7304 37.2387 60.5449 37.1704C60.3691 37.102 60.1835 36.9995 59.9882 36.8628C59.7929 36.7358 59.6171 36.5796 59.4609 36.394C59.3046 36.1987 59.2216 35.979 59.2119 35.7348C59.1923 35.6274 59.1826 35.4809 59.1826 35.2954C59.1826 35.1001 59.1826 34.8755 59.1826 34.6216C59.1826 34.2309 59.1826 33.7964 59.1826 33.3178C59.1826 32.8393 59.1923 32.3559 59.2119 31.8676C59.1435 32.2192 59.0605 32.5854 58.9628 32.9663C58.8652 33.3374 58.7431 33.7085 58.5966 34.0796C58.4501 34.4507 58.2792 34.8169 58.0839 35.1782C57.8886 35.5395 57.664 35.8862 57.4101 36.2182C57.2734 36.394 57.1269 36.5454 56.9706 36.6723C56.8242 36.7895 56.6777 36.8872 56.5312 36.9653C56.3847 37.0532 56.248 37.1167 56.121 37.1557C55.9941 37.1948 55.8964 37.2143 55.8281 37.2143C55.789 37.2143 55.6962 37.1704 55.5497 37.0825C55.413 37.0044 55.247 36.9018 55.0517 36.7749C54.8661 36.6382 54.666 36.4917 54.4511 36.3354C54.2363 36.1694 54.0312 36.0083 53.8359 35.852C53.6406 35.686 53.4648 35.5346 53.3085 35.3979C53.1523 35.2514 53.04 35.1342 52.9716 35.0464C52.9033 34.9487 52.8398 34.7827 52.7812 34.5483C52.7324 34.3139 52.6884 34.0258 52.6494 33.6841C52.6103 33.3423 52.5761 32.9565 52.5468 32.5268C52.5273 32.0971 52.5175 31.6382 52.5175 31.1499C52.5175 30.8862 52.5224 30.5444 52.5322 30.1245C52.5419 29.7046 52.5615 29.2553 52.5908 28.7768C52.6201 28.2885 52.6542 27.8003 52.6933 27.312C52.7421 26.8139 52.7958 26.3696 52.8544 25.979C52.9228 25.5786 53.0009 25.2563 53.0888 25.0122C53.1767 24.7583 53.2792 24.6313 53.3964 24.6313C53.4745 24.6313 53.6113 24.6557 53.8066 24.7046C54.0019 24.7436 54.2021 24.7632 54.4072 24.7632C54.7099 24.7632 54.9199 24.7387 55.037 24.6899C55.164 24.6313 55.2568 24.602 55.3154 24.602C55.413 24.602 55.4619 24.685 55.4619 24.851C55.4619 24.8999 55.4619 24.9487 55.4619 24.9975C55.4619 25.0366 55.4521 25.0854 55.4326 25.144C55.4228 25.2026 55.3984 25.354 55.3593 25.5981C55.33 25.8423 55.291 26.1548 55.2421 26.5356C55.1933 26.9165 55.1445 27.3462 55.0956 27.8247C55.0468 28.2934 54.998 28.7866 54.9492 29.3042C54.9101 29.8217 54.8759 30.3442 54.8466 30.8716C54.8173 31.3989 54.8027 31.9018 54.8027 32.3803C54.8027 32.7026 54.8076 33.0249 54.8173 33.3471C54.8369 33.6694 54.8661 33.9624 54.9052 34.226C54.9443 34.4897 54.998 34.7046 55.0663 34.8706C55.1347 35.0268 55.2177 35.1049 55.3154 35.1049C55.4033 35.1049 55.5253 35.0659 55.6816 34.9878C55.8476 34.8999 56.038 34.729 56.2529 34.4751C56.4775 34.2212 56.7216 33.8598 56.9853 33.3911C57.249 32.9223 57.5322 32.3022 57.8349 31.5307C58.1474 30.7495 58.4697 29.7973 58.8017 28.6743C59.1435 27.5415 59.4902 26.1938 59.8417 24.6313C59.8417 24.602 59.8564 24.5825 59.8857 24.5727C59.9247 24.5532 59.9687 24.5434 60.0175 24.5434C60.1445 24.5434 60.3056 24.5581 60.5009 24.5874C60.6962 24.6069 60.8818 24.6411 61.0576 24.6899C61.2431 24.729 61.3994 24.7778 61.5263 24.8364C61.663 24.895 61.7314 24.9585 61.7314 25.0268C61.7314 25.4663 61.7119 25.9448 61.6728 26.4624C61.6337 26.9799 61.5898 27.5171 61.541 28.0737C61.4921 28.6206 61.4482 29.1821 61.4091 29.7583C61.3701 30.3344 61.3505 30.9057 61.3505 31.4721C61.3505 32.4878 61.3798 33.4594 61.4384 34.3872C61.5068 35.3051 61.5947 36.0962 61.7021 36.7602ZM71.3847 26.3159C71.3749 26.5991 71.3456 26.8823 71.2968 27.1655C71.2578 27.4389 71.1992 27.7026 71.121 27.9565C71.0429 28.2007 70.9453 28.4204 70.8281 28.6157C70.7206 28.811 70.5986 28.9673 70.4619 29.0844C70.3447 29.1821 70.2519 29.2309 70.1835 29.2309C70.1152 29.2309 70.0566 29.2114 70.0078 29.1723C69.9687 29.1333 69.9345 29.0893 69.9052 29.0405C69.8759 28.9917 69.8369 28.9624 69.788 28.9526C69.749 28.9428 69.6953 28.9477 69.6269 28.9673C69.5683 28.977 69.5048 28.977 69.4365 28.9673C69.3779 28.9575 69.3193 28.9233 69.2607 28.8647C69.2119 28.7964 69.1777 28.6792 69.1581 28.5132C69.1386 28.3276 69.1435 28.0883 69.1728 27.7954C69.2119 27.4926 69.2314 27.1997 69.2314 26.9165C69.2314 26.6626 69.2021 26.4526 69.1435 26.2866C69.0947 26.1108 69.0019 26.0229 68.8652 26.0229C68.7968 26.0229 68.6747 26.0766 68.499 26.1841C68.3329 26.2817 68.1474 26.4966 67.9423 26.8286C67.7372 27.1606 67.5322 27.644 67.3271 28.2788C67.122 28.9038 66.956 29.7387 66.829 30.7837C66.829 32.1313 66.8388 33.2153 66.8583 34.0356C66.8779 34.8559 66.8876 35.4956 66.8876 35.9546C66.8876 36.3452 66.8779 36.6235 66.8583 36.7895C66.8388 36.9555 66.79 37.063 66.7119 37.1118C66.663 37.1411 66.5654 37.1753 66.4189 37.2143C66.2822 37.2632 66.1308 37.3071 65.9648 37.3462C65.8085 37.3852 65.6572 37.4194 65.5107 37.4487C65.3642 37.478 65.2714 37.4878 65.2324 37.478C65.2031 37.4682 65.1494 37.4341 65.0712 37.3755C64.9931 37.3266 64.9101 37.2632 64.8222 37.185C64.7441 37.1069 64.6708 37.0239 64.6025 36.936C64.5341 36.8579 64.4951 36.7895 64.4853 36.7309C64.4658 36.6333 64.456 36.4135 64.456 36.0717C64.4658 35.7202 64.4706 35.3003 64.4706 34.812C64.4804 34.3237 64.4902 33.7915 64.4999 33.2153C64.5097 32.6294 64.5146 32.0483 64.5146 31.4721C64.5146 31.101 64.5244 30.6909 64.5439 30.2417C64.5732 29.7827 64.6025 29.3188 64.6318 28.8501C64.6708 28.3813 64.7099 27.9223 64.749 27.4731C64.788 27.0239 64.8222 26.6235 64.8515 26.2719C64.8906 25.9106 64.9199 25.6128 64.9394 25.3784C64.9687 25.1342 64.9882 24.9878 64.998 24.9389C65.0078 24.8608 65.0419 24.8315 65.1005 24.851C65.1689 24.8706 65.2372 24.9048 65.3056 24.9536C65.3837 25.0024 65.4521 25.0464 65.5107 25.0854C65.5693 25.1245 65.6083 25.1245 65.6279 25.0854C65.6474 24.9975 65.7206 24.9878 65.8476 25.0561C65.9745 25.1147 66.0917 25.1831 66.1992 25.2612C66.2382 25.31 66.2822 25.354 66.331 25.393C66.3896 25.4223 66.4433 25.4663 66.4921 25.5249C66.541 25.5737 66.58 25.6421 66.6093 25.7299C66.6484 25.8178 66.6679 25.935 66.6679 26.0815C66.6679 26.2182 66.6777 26.4233 66.6972 26.6967C66.7167 26.9702 66.7411 27.2924 66.7704 27.6635C66.8779 27.312 67.0048 26.9409 67.1513 26.5503C67.3076 26.1596 67.4931 25.8032 67.7079 25.4809C67.9228 25.1489 68.1767 24.8755 68.4697 24.6606C68.7626 24.4458 69.1142 24.3383 69.5244 24.3383C69.749 24.3383 69.9736 24.3823 70.1982 24.4702C70.4228 24.5581 70.623 24.6899 70.7988 24.8657C70.9843 25.0317 71.1308 25.2368 71.2382 25.4809C71.3456 25.7251 71.3945 26.0034 71.3847 26.3159ZM82.0195 31.5014C82.0195 31.6089 82.0244 31.7358 82.0341 31.8823C82.0439 32.0288 82.0488 32.1948 82.0488 32.3803C82.0488 32.6147 82.0146 32.9077 81.9462 33.2592C81.8779 33.601 81.7656 33.9624 81.6093 34.3432C81.4628 34.7241 81.2626 35.1049 81.0087 35.4858C80.7548 35.8667 80.4423 36.2085 80.0712 36.5112C79.7001 36.8139 79.2607 37.0581 78.7529 37.2436C78.2548 37.4389 77.6835 37.5366 77.039 37.5366C76.4628 37.5366 75.872 37.4243 75.2665 37.1997C74.6708 36.9848 74.124 36.6479 73.6259 36.1889C73.1376 35.7202 72.7324 35.1294 72.4101 34.4165C72.0976 33.6938 71.9413 32.8344 71.9413 31.8383C71.9413 31.2133 72.0195 30.5981 72.1757 29.9926C72.3417 29.3872 72.5566 28.8159 72.8203 28.2788C73.0937 27.7417 73.4111 27.2485 73.7724 26.7993C74.1435 26.3403 74.5292 25.9497 74.9296 25.6274C75.3398 25.2954 75.7597 25.0366 76.1894 24.851C76.6288 24.6655 77.0536 24.5727 77.4638 24.5727C78.1767 24.5727 78.7626 24.685 79.2216 24.9096C79.6904 25.1342 80.0615 25.4126 80.3349 25.7446C80.6083 26.0766 80.7988 26.4331 80.9062 26.8139C81.0234 27.185 81.082 27.5219 81.082 27.8247C81.082 28.1176 81.0087 28.4546 80.8622 28.8354C80.7255 29.2065 80.496 29.563 80.1738 29.9048C79.8515 30.2368 79.4316 30.52 78.914 30.7544C78.3964 30.979 77.7617 31.0913 77.0097 31.0913C76.6093 31.0913 76.248 31.0376 75.9257 30.9301C75.6132 30.813 75.3349 30.6714 75.0908 30.5053C74.8466 30.3296 74.6367 30.144 74.4609 29.9487C74.2949 29.7436 74.1533 29.5532 74.0361 29.3774C73.8603 29.9829 73.7724 30.6909 73.7724 31.5014C73.7724 32.0581 73.8505 32.561 74.0068 33.0102C74.1728 33.4497 74.3974 33.8257 74.6806 34.1382C74.9638 34.4507 75.3007 34.6899 75.6913 34.8559C76.082 35.0219 76.5117 35.1049 76.9804 35.1049C77.5663 35.1049 78.079 35.0073 78.5185 34.812C78.9579 34.6069 79.3388 34.353 79.6611 34.0503C79.9931 33.7475 80.2763 33.4204 80.5107 33.0688C80.7548 32.7075 80.9648 32.3803 81.1406 32.0874C81.3163 31.7846 81.4677 31.5356 81.5947 31.3403C81.7314 31.145 81.8632 31.0522 81.9902 31.062C82.0488 31.062 82.0781 31.1108 82.0781 31.2085C82.0781 31.2573 82.0732 31.3061 82.0634 31.3549C82.0536 31.4038 82.039 31.4526 82.0195 31.5014ZM77.6103 26.0522C77.4345 26.0522 77.205 26.0913 76.9218 26.1694C76.6484 26.2378 76.3554 26.3647 76.0429 26.5503C75.7402 26.7358 75.4374 26.9897 75.1347 27.312C74.832 27.6245 74.5683 28.0249 74.3437 28.5132C74.4804 28.4448 74.5976 28.3862 74.6953 28.3374C74.8027 28.2885 74.8759 28.2641 74.915 28.2641C74.9345 28.2641 74.9638 28.2837 75.0029 28.3227C75.2275 28.7036 75.5058 28.977 75.8378 29.143C76.1796 29.2993 76.5605 29.3774 76.9804 29.3774C77.3124 29.3774 77.5956 29.3237 77.83 29.2163C78.0742 29.0991 78.2744 28.9526 78.4306 28.7768C78.5869 28.601 78.6992 28.4106 78.7675 28.2055C78.8359 27.9907 78.8701 27.7807 78.8701 27.5757C78.8701 27.1362 78.7578 26.7749 78.5331 26.4917C78.3085 26.1987 78.0009 26.0522 77.6103 26.0522ZM104.681 34.7827C104.729 34.851 104.759 34.8999 104.768 34.9292C104.778 34.9585 104.773 34.9829 104.754 35.0024C104.744 35.0122 104.725 35.0219 104.695 35.0317C104.666 35.0415 104.642 35.0561 104.622 35.0757C104.573 35.1049 104.559 35.1342 104.578 35.1635C104.607 35.1928 104.593 35.2466 104.534 35.3247C104.495 35.354 104.49 35.3882 104.519 35.4272C104.549 35.4565 104.554 35.4809 104.534 35.5005C104.388 35.7251 104.275 35.8667 104.197 35.9253C104.119 35.9253 104.051 35.935 103.992 35.9546C103.963 35.9643 103.943 35.9741 103.934 35.9839C103.904 36.0132 103.875 36.0522 103.846 36.101C103.816 36.1401 103.792 36.1792 103.772 36.2182C103.753 36.2475 103.728 36.2719 103.699 36.2915C103.68 36.3012 103.655 36.2866 103.626 36.2475C103.597 36.1987 103.558 36.1743 103.509 36.1743C103.47 36.1743 103.44 36.1889 103.421 36.2182C103.401 36.2378 103.377 36.2622 103.348 36.2915C103.318 36.311 103.299 36.3354 103.289 36.3647C103.289 36.3842 103.304 36.4087 103.333 36.438C103.362 36.4575 103.431 36.4819 103.538 36.5112C103.782 36.5796 103.826 36.6479 103.67 36.7163C103.523 36.7749 103.24 36.7895 102.82 36.7602C102.42 36.7309 102.039 36.7065 101.678 36.687C101.316 36.6577 100.955 36.6382 100.594 36.6284C100.242 36.6089 99.8808 36.5942 99.5097 36.5844C99.1386 36.5747 98.7431 36.5747 98.3232 36.5844C97.7665 36.5942 97.1757 36.6186 96.5507 36.6577C95.9355 36.6967 95.3203 36.7407 94.705 36.7895C94.0995 36.8383 93.5136 36.8872 92.9472 36.936C92.3906 36.9946 91.8876 37.0483 91.4384 37.0971C90.9892 37.146 90.6083 37.1899 90.2958 37.229C89.9931 37.2778 89.7978 37.312 89.7099 37.3315C89.622 37.3608 89.5585 37.3706 89.5195 37.3608C89.4902 37.3608 89.4658 37.3364 89.4462 37.2876C89.4365 37.2387 89.4267 37.1655 89.4169 37.0678C89.4072 36.9702 89.3828 36.8383 89.3437 36.6723C89.3144 36.5747 89.2704 36.477 89.2119 36.3794C89.163 36.2719 89.1288 36.1889 89.1093 36.1303C89.08 35.9741 89.0703 35.8667 89.08 35.8081C89.0898 35.7397 89.1484 35.6958 89.2558 35.6762L91.0576 35.1928C90.9501 34.519 90.872 33.7329 90.8232 32.8344C90.7841 31.9262 90.7646 30.9448 90.7646 29.8901C90.7646 28.9819 90.7841 28.0542 90.8232 27.1069C90.8622 26.1499 90.9208 25.188 90.999 24.2212C91.1943 21.7798 91.3554 19.9096 91.4824 18.6108C91.6191 17.3022 91.746 16.5405 91.8632 16.3257C91.8925 16.2768 91.9169 16.2329 91.9365 16.1938C91.956 16.145 91.9853 16.1206 92.0244 16.1206C92.0829 16.0913 92.1269 16.0962 92.1562 16.1352C92.1855 16.1743 92.2392 16.1792 92.3173 16.1499C92.3369 16.1499 92.3515 16.1401 92.3613 16.1206C92.3808 16.0913 92.4052 16.062 92.4345 16.0327L92.4638 16.018C92.4833 15.9985 92.5224 15.9741 92.581 15.9448C92.7275 15.9936 92.8349 16.0376 92.9033 16.0766C92.9423 16.0962 92.9667 16.1108 92.9765 16.1206C93.0351 16.1499 93.0937 16.2036 93.1523 16.2817C93.2109 16.3501 93.2646 16.3549 93.3134 16.2964L93.3427 16.2671C93.3622 16.2475 93.3915 16.2378 93.4306 16.2378C93.4599 16.2573 93.4892 16.2768 93.5185 16.2964C93.5478 16.3159 93.5722 16.3354 93.5917 16.3549C93.621 16.3842 93.6454 16.4038 93.665 16.4135C93.7138 16.4428 93.7578 16.4819 93.7968 16.5307C93.8359 16.5796 93.8749 16.6723 93.914 16.8091C93.9531 16.9848 93.9579 17.3462 93.9286 17.893C93.9091 18.4399 93.8701 19.1137 93.8115 19.9145C93.7626 20.7153 93.7089 21.6137 93.6503 22.6098C93.5917 23.6059 93.5576 24.6411 93.5478 25.7153C93.538 26.2133 93.5234 26.7505 93.5038 27.3266C93.4843 27.893 93.4648 28.479 93.4453 29.0844C93.4257 29.6801 93.4062 30.271 93.3867 30.8569C93.3769 31.4428 93.372 31.9995 93.372 32.5268C93.372 32.9467 93.372 33.3423 93.372 33.7133C93.3818 34.0747 93.4111 34.3872 93.4599 34.6508C94.5244 34.4262 95.7158 34.226 97.0341 34.0503C98.3622 33.8745 99.7783 33.7866 101.282 33.7866C101.829 33.7866 102.283 33.8159 102.644 33.8745C103.016 33.9233 103.323 33.9966 103.567 34.0942C103.626 34.1137 103.709 34.1528 103.816 34.2114C103.924 34.2602 104.036 34.3188 104.153 34.3872C104.27 34.4555 104.378 34.5239 104.476 34.5923C104.573 34.6606 104.642 34.7241 104.681 34.7827ZM114.319 28.2641C114.329 28.6059 114.3 29.0258 114.231 29.5239C114.163 30.0122 114.085 30.5395 113.997 31.1059C113.909 31.6626 113.826 32.2339 113.748 32.8198C113.67 33.4057 113.631 33.9575 113.631 34.4751C113.631 34.8169 113.655 35.144 113.704 35.4565C113.753 35.7592 113.836 36.0229 113.953 36.2475C114.021 36.3745 114.056 36.4868 114.056 36.5844C114.065 36.6821 114.06 36.77 114.041 36.8481C114.021 36.9165 114.002 36.9751 113.982 37.0239C113.963 37.0825 113.963 37.1362 113.982 37.185C114.002 37.2339 113.997 37.2876 113.968 37.3462C113.938 37.4145 113.894 37.4731 113.836 37.5219C113.777 37.5805 113.709 37.6196 113.631 37.6391C113.562 37.6684 113.499 37.6635 113.44 37.6245C113.333 37.5561 113.245 37.5171 113.177 37.5073C113.118 37.4975 113.064 37.4975 113.016 37.5073C112.977 37.5268 112.937 37.5464 112.898 37.5659C112.869 37.5854 112.83 37.5854 112.781 37.5659C112.615 37.478 112.435 37.3755 112.239 37.2583C112.044 37.1411 111.917 37.0141 111.858 36.8774C111.819 36.8188 111.78 36.7212 111.741 36.5844C111.712 36.4477 111.683 36.2866 111.653 36.101C111.634 35.9155 111.614 35.7153 111.595 35.5005C111.575 35.2856 111.56 35.0757 111.551 34.8706C111.228 35.476 110.882 35.979 110.511 36.3794C110.149 36.7798 109.783 37.0971 109.412 37.3315C109.051 37.5757 108.689 37.7466 108.328 37.8442C107.977 37.9419 107.654 37.9907 107.361 37.9907C107.059 37.9907 106.79 37.9516 106.556 37.8735C106.331 37.7954 106.155 37.7026 106.028 37.5952C105.55 37.1167 105.208 36.7309 105.003 36.438C104.808 36.1352 104.72 35.8911 104.739 35.7055C104.788 35.0805 104.939 34.5044 105.193 33.977C105.447 33.4497 105.765 32.9663 106.145 32.5268C106.526 32.0776 106.951 31.6772 107.42 31.3257C107.898 30.9643 108.382 30.6469 108.87 30.3735C109.368 30.0903 109.856 29.8559 110.335 29.6704C110.813 29.4751 111.248 29.3188 111.639 29.2016C111.619 28.6743 111.595 28.2153 111.565 27.8247C111.546 27.4243 111.512 27.1313 111.463 26.9458C111.316 26.3403 111.092 25.8911 110.789 25.5981C110.486 25.2954 110.12 25.144 109.69 25.144C109.417 25.144 109.139 25.2466 108.855 25.4516C108.582 25.6567 108.333 25.935 108.108 26.2866C107.884 26.6382 107.698 27.0434 107.552 27.5024C107.415 27.9614 107.342 28.4448 107.332 28.9526C107.332 29.0796 107.337 29.2016 107.347 29.3188C107.356 29.436 107.371 29.5581 107.391 29.685C107.4 29.7534 107.376 29.8022 107.317 29.8315C107.268 29.8608 107.205 29.8852 107.127 29.9048C107.049 29.9145 106.966 29.9243 106.878 29.9341C106.79 29.9438 106.717 29.9585 106.658 29.978C106.609 29.9975 106.57 30.0122 106.541 30.0219C106.512 30.0219 106.482 30.0171 106.453 30.0073C106.424 29.9878 106.385 29.9585 106.336 29.9194C106.297 29.8803 106.238 29.8315 106.16 29.7729C106.082 29.7143 105.999 29.6655 105.911 29.6264C105.833 29.5874 105.76 29.5532 105.691 29.5239C105.633 29.4946 105.579 29.4702 105.53 29.4507C105.491 29.4214 105.472 29.3872 105.472 29.3481C105.472 28.7426 105.603 28.1176 105.867 27.4731C106.141 26.8286 106.502 26.2426 106.951 25.7153C107.41 25.1782 107.937 24.7387 108.533 24.3969C109.139 24.0551 109.778 23.8842 110.452 23.8842C110.999 23.8842 111.473 23.9673 111.873 24.1333C112.273 24.2993 112.615 24.5141 112.898 24.7778C113.182 25.0415 113.411 25.3344 113.587 25.6567C113.772 25.979 113.914 26.3061 114.012 26.6382C114.119 26.9604 114.192 27.268 114.231 27.561C114.28 27.8442 114.31 28.0786 114.319 28.2641ZM111.668 30.8716C111.375 30.979 111.053 31.1206 110.701 31.2964C110.35 31.4721 109.993 31.6821 109.632 31.9262C109.27 32.1606 108.909 32.4341 108.548 32.7466C108.186 33.0591 107.85 33.4057 107.537 33.7866C107.166 34.226 106.897 34.6167 106.731 34.9585C106.565 35.3003 106.463 35.5932 106.424 35.8374C106.385 36.0717 106.394 36.2573 106.453 36.394C106.512 36.5307 106.58 36.6137 106.658 36.643C106.961 36.7602 107.273 36.7749 107.596 36.687C107.928 36.5893 108.255 36.4233 108.577 36.1889C108.909 35.9448 109.227 35.6567 109.529 35.3247C109.842 34.9829 110.135 34.6362 110.408 34.2846C110.682 33.9233 110.926 33.5717 111.141 33.2299C111.355 32.8784 111.531 32.5757 111.668 32.3217V30.8716ZM119.71 16.9848C119.7 17.0532 119.681 17.2729 119.651 17.644C119.632 18.0151 119.602 18.4839 119.563 19.0503C119.534 19.6069 119.495 20.2319 119.446 20.9253C119.407 21.6089 119.363 22.2973 119.314 22.9907C119.275 23.6841 119.236 24.353 119.197 24.9975C119.168 25.6323 119.143 26.1841 119.124 26.6528C119.251 26.438 119.417 26.2231 119.622 26.0083C119.827 25.7934 120.071 25.603 120.354 25.437C120.647 25.2612 120.979 25.1196 121.351 25.0122C121.731 24.9048 122.156 24.851 122.625 24.851C123.221 24.851 123.811 24.9585 124.397 25.1733C124.993 25.3882 125.525 25.7202 125.994 26.1694C126.463 26.6089 126.844 27.1753 127.137 27.8686C127.43 28.5522 127.576 29.3676 127.576 30.3149C127.576 31.1059 127.469 31.8237 127.254 32.4682C127.049 33.1128 126.775 33.6889 126.434 34.1967C126.102 34.6948 125.721 35.1294 125.291 35.5005C124.861 35.8716 124.427 36.1792 123.987 36.4233C123.548 36.6674 123.123 36.8481 122.713 36.9653C122.303 37.0825 121.946 37.1411 121.643 37.1411C121.331 37.1411 121.038 37.1118 120.765 37.0532C120.501 36.9946 120.267 36.9214 120.061 36.8335C119.866 36.7456 119.71 36.6479 119.593 36.5405C119.485 36.4331 119.427 36.3257 119.417 36.2182C119.397 35.9936 119.393 35.7544 119.402 35.5005C119.422 35.2466 119.515 35.0366 119.681 34.8706C119.837 34.7143 119.969 34.6216 120.076 34.5923C120.193 34.563 120.306 34.6167 120.413 34.7534C120.52 34.8901 120.584 35.0415 120.603 35.2075C120.633 35.3735 120.618 35.5005 120.56 35.5883C120.53 35.6372 120.53 35.6811 120.56 35.7202C120.599 35.7495 120.652 35.7788 120.721 35.8081C120.799 35.8276 120.882 35.8471 120.97 35.8667C121.067 35.8764 121.16 35.8813 121.248 35.8813C121.58 35.8813 121.956 35.7495 122.376 35.4858C122.806 35.2124 123.206 34.8364 123.577 34.3579C123.948 33.8794 124.261 33.3178 124.515 32.6733C124.768 32.0288 124.891 31.3305 124.881 30.5786C124.871 29.9829 124.798 29.4653 124.661 29.0258C124.524 28.5766 124.353 28.2007 124.148 27.8979C123.943 27.5854 123.709 27.3315 123.445 27.1362C123.191 26.9409 122.937 26.7944 122.684 26.6967C122.439 26.5893 122.205 26.521 121.98 26.4917C121.766 26.4624 121.59 26.4526 121.453 26.4624C120.877 26.5307 120.384 26.7309 119.974 27.063C119.563 27.3852 119.266 27.7954 119.08 28.2934C119.051 29.3286 119.012 30.3735 118.963 31.4282C118.924 32.4731 118.904 33.4497 118.904 34.3579C118.904 34.8071 118.909 35.2368 118.919 35.6469C118.938 36.0571 118.973 36.4184 119.021 36.7309C119.031 36.8286 119.026 36.8969 119.007 36.936C118.997 36.9751 118.973 36.9946 118.934 36.9946C118.894 36.9946 118.851 36.9848 118.802 36.9653C118.753 36.9458 118.709 36.9262 118.67 36.9067C118.631 36.8872 118.621 36.9116 118.641 36.9799C118.66 37.0483 118.67 37.1167 118.67 37.185C118.68 37.2632 118.665 37.3169 118.626 37.3462C118.597 37.3852 118.509 37.3608 118.362 37.2729C118.284 37.2046 118.186 37.1508 118.069 37.1118C117.962 37.0825 117.923 37.1069 117.952 37.185C117.962 37.2143 117.933 37.229 117.864 37.229C117.796 37.2387 117.713 37.229 117.615 37.1997C117.527 37.1704 117.439 37.1167 117.352 37.0385C117.273 36.9604 117.22 36.8481 117.19 36.7016C117.142 36.3989 117.093 36.0766 117.044 35.7348C117.005 35.3833 116.971 35.0024 116.941 34.5923C116.912 34.1723 116.888 33.7133 116.868 33.2153C116.849 32.7075 116.839 32.1362 116.839 31.5014C116.839 31.0229 116.839 30.5053 116.839 29.9487C116.849 29.3823 116.868 28.7622 116.897 28.0883C116.936 26.8676 116.985 25.6616 117.044 24.4702C117.102 23.2788 117.166 22.1899 117.234 21.2036C117.303 20.2075 117.376 19.353 117.454 18.6401C117.542 17.9272 117.635 17.4389 117.732 17.1753C117.752 17.0776 117.791 17.019 117.85 16.9995C117.918 16.9799 118.04 16.9458 118.216 16.8969C118.382 16.8481 118.553 16.7993 118.728 16.7505C118.914 16.7016 119.056 16.6919 119.153 16.7212C119.192 16.7407 119.246 16.7407 119.314 16.7212C119.383 16.7016 119.446 16.6919 119.505 16.6919C119.573 16.6919 119.627 16.7114 119.666 16.7505C119.715 16.7895 119.729 16.8676 119.71 16.9848ZM139.266 31.5014C139.266 31.6089 139.27 31.7358 139.28 31.8823C139.29 32.0288 139.295 32.1948 139.295 32.3803C139.295 32.6147 139.261 32.9077 139.192 33.2592C139.124 33.601 139.012 33.9624 138.855 34.3432C138.709 34.7241 138.509 35.1049 138.255 35.4858C138.001 35.8667 137.688 36.2085 137.317 36.5112C136.946 36.8139 136.507 37.0581 135.999 37.2436C135.501 37.4389 134.93 37.5366 134.285 37.5366C133.709 37.5366 133.118 37.4243 132.513 37.1997C131.917 36.9848 131.37 36.6479 130.872 36.1889C130.384 35.7202 129.978 35.1294 129.656 34.4165C129.344 33.6938 129.187 32.8344 129.187 31.8383C129.187 31.2133 129.266 30.5981 129.422 29.9926C129.588 29.3872 129.803 28.8159 130.066 28.2788C130.34 27.7417 130.657 27.2485 131.018 26.7993C131.39 26.3403 131.775 25.9497 132.176 25.6274C132.586 25.2954 133.006 25.0366 133.435 24.851C133.875 24.6655 134.3 24.5727 134.71 24.5727C135.423 24.5727 136.009 24.685 136.468 24.9096C136.936 25.1342 137.308 25.4126 137.581 25.7446C137.854 26.0766 138.045 26.4331 138.152 26.8139C138.269 27.185 138.328 27.5219 138.328 27.8247C138.328 28.1176 138.255 28.4546 138.108 28.8354C137.972 29.2065 137.742 29.563 137.42 29.9048C137.098 30.2368 136.678 30.52 136.16 30.7544C135.643 30.979 135.008 31.0913 134.256 31.0913C133.855 31.0913 133.494 31.0376 133.172 30.9301C132.859 30.813 132.581 30.6714 132.337 30.5053C132.093 30.3296 131.883 30.144 131.707 29.9487C131.541 29.7436 131.399 29.5532 131.282 29.3774C131.106 29.9829 131.018 30.6909 131.018 31.5014C131.018 32.0581 131.097 32.561 131.253 33.0102C131.419 33.4497 131.643 33.8257 131.927 34.1382C132.21 34.4507 132.547 34.6899 132.937 34.8559C133.328 35.0219 133.758 35.1049 134.227 35.1049C134.812 35.1049 135.325 35.0073 135.765 34.812C136.204 34.6069 136.585 34.353 136.907 34.0503C137.239 33.7475 137.522 33.4204 137.757 33.0688C138.001 32.7075 138.211 32.3803 138.387 32.0874C138.562 31.7846 138.714 31.5356 138.841 31.3403C138.977 31.145 139.109 31.0522 139.236 31.062C139.295 31.062 139.324 31.1108 139.324 31.2085C139.324 31.2573 139.319 31.3061 139.31 31.3549C139.3 31.4038 139.285 31.4526 139.266 31.5014ZM134.856 26.0522C134.681 26.0522 134.451 26.0913 134.168 26.1694C133.894 26.2378 133.602 26.3647 133.289 26.5503C132.986 26.7358 132.684 26.9897 132.381 27.312C132.078 27.6245 131.814 28.0249 131.59 28.5132C131.727 28.4448 131.844 28.3862 131.941 28.3374C132.049 28.2885 132.122 28.2641 132.161 28.2641C132.181 28.2641 132.21 28.2837 132.249 28.3227C132.474 28.7036 132.752 28.977 133.084 29.143C133.426 29.2993 133.807 29.3774 134.227 29.3774C134.559 29.3774 134.842 29.3237 135.076 29.2163C135.32 29.0991 135.52 28.9526 135.677 28.7768C135.833 28.601 135.945 28.4106 136.014 28.2055C136.082 27.9907 136.116 27.7807 136.116 27.5757C136.116 27.1362 136.004 26.7749 135.779 26.4917C135.555 26.1987 135.247 26.0522 134.856 26.0522ZM144.143 17.2924C144.143 17.4292 144.134 17.6977 144.114 18.0981C144.095 18.4985 144.07 18.9819 144.041 19.5483C144.012 20.1049 143.977 20.7202 143.938 21.394C143.909 22.0581 143.875 22.727 143.836 23.4008C143.797 24.0649 143.763 24.7094 143.733 25.3344C143.704 25.9594 143.685 26.5063 143.675 26.9751C143.655 27.2583 143.641 27.5708 143.631 27.9126C143.631 28.2544 143.631 28.6206 143.631 29.0112C143.631 29.5288 143.631 30.0708 143.631 30.6372C143.641 31.1938 143.65 31.7456 143.66 32.2924C143.67 32.8393 143.68 33.3667 143.689 33.8745C143.709 34.3725 143.724 34.8217 143.733 35.2221C143.743 35.6225 143.748 35.9594 143.748 36.2329C143.758 36.4966 143.763 36.6626 143.763 36.7309C143.763 36.8676 143.738 36.9702 143.689 37.0385C143.65 37.1167 143.597 37.1655 143.528 37.185C143.47 37.2143 143.406 37.2192 143.338 37.1997C143.269 37.1899 143.211 37.1704 143.162 37.1411C143.103 37.1118 143.055 37.0776 143.016 37.0385C142.986 36.9995 142.962 36.9702 142.942 36.9507C142.923 36.9311 142.903 36.9262 142.884 36.936C142.874 36.9458 142.864 36.9848 142.854 37.0532C142.825 37.3071 142.767 37.4975 142.679 37.6245C142.601 37.7514 142.513 37.8344 142.415 37.8735C142.327 37.9223 142.244 37.937 142.166 37.9174C142.088 37.8979 142.039 37.8637 142.019 37.8149C142 37.7661 141.966 37.7368 141.917 37.727C141.878 37.7173 141.834 37.7075 141.785 37.6977C141.736 37.6977 141.687 37.6831 141.639 37.6538C141.6 37.6342 141.575 37.5854 141.565 37.5073C141.487 37.1753 141.438 36.7553 141.419 36.2475C141.399 35.7299 141.39 35.1489 141.39 34.5044C141.39 33.9477 141.394 33.3471 141.404 32.7026C141.414 32.0581 141.419 31.3989 141.419 30.7251C141.419 30.3344 141.419 29.9487 141.419 29.5678C141.419 29.1772 141.409 28.7817 141.39 28.3813V27.4585C141.39 26.6674 141.409 25.8764 141.448 25.0854C141.487 24.2846 141.536 23.518 141.595 22.7856C141.653 22.0532 141.717 21.3647 141.785 20.7202C141.853 20.0757 141.912 19.5044 141.961 19.0063C142.01 18.5083 142.049 18.103 142.078 17.7905C142.107 17.478 142.117 17.2827 142.107 17.2046C142.098 17.1362 142.102 17.0874 142.122 17.0581C142.151 17.0288 142.185 17.0141 142.225 17.0141C142.273 17.0044 142.322 16.9995 142.371 16.9995C142.42 16.9897 142.464 16.9751 142.503 16.9555C142.571 16.9165 142.625 16.9067 142.664 16.9262C142.713 16.936 142.752 16.9555 142.781 16.9848C142.81 17.0141 142.835 17.0483 142.854 17.0874C142.884 17.1167 142.923 17.1313 142.972 17.1313C143.03 17.1216 143.074 17.1069 143.103 17.0874C143.143 17.0581 143.172 17.0337 143.191 17.0141C143.221 16.9848 143.245 16.9604 143.265 16.9409C143.294 16.9214 143.328 16.9165 143.367 16.9262C143.445 16.9458 143.518 16.9604 143.587 16.9702C143.665 16.9702 143.704 16.9555 143.704 16.9262C143.724 16.8481 143.753 16.8139 143.792 16.8237C143.831 16.8237 143.88 16.8481 143.938 16.8969C143.997 16.9458 144.046 16.9995 144.085 17.0581C144.124 17.1069 144.143 17.185 144.143 17.2924Z" fill="#999999"/>
<ellipse cx="18.1829" cy="28.969" rx="2.16898" ry="2.22838" fill="white"/>
<defs>
<filter id="filter0_d_273_321" x="0.42627" y="0.069603" width="166.369" height="56.8408" filterUnits="userSpaceOnUse" color-interpolation-filters="sRGB">
<feFlood flood-opacity="0" result="BackgroundImageFix"/>
<feColorMatrix in="SourceAlpha" type="matrix" values="0 0 0 0 0 0 0 0 0 0 0 0 0 0 0 0 0 0 127 0" result="hardAlpha"/>
<feOffset dy="4"/>
<feGaussianBlur stdDeviation="2"/>
<feComposite in2="hardAlpha" operator="out"/>
<feColorMatrix type="matrix" values="0 0 0 0 0 0 0 0 0 0 0 0 0 0 0 0 0 0 0.12 0"/>
<feBlend mode="normal" in2="BackgroundImageFix" result="effect1_dropShadow_273_321"/>
<feBlend mode="normal" in="SourceGraphic" in2="effect1_dropShadow_273_321" result="shape"/>
</filter>
</defs>
</svg>
