<svg width="30" height="30" viewBox="0 0 30 30" fill="none" xmlns="http://www.w3.org/2000/svg">
<path d="M15 26.875C12.3092 26.875 9.90208 26.0658 7.77875 24.4475C5.65542 22.8292 4.25125 20.7217 3.56625 18.125H4.8325C5.51167 20.3817 6.78708 22.1958 8.65875 23.5675C10.5304 24.9392 12.6442 25.625 15 25.625C17.0967 25.625 19.0037 25.0421 20.7212 23.8762C22.4387 22.7104 23.8075 21.21 24.8275 19.375H20.625V18.125H26.875V24.375H25.625V20.4325C24.4858 22.3525 22.9892 23.9063 21.135 25.0938C19.2808 26.2812 17.2358 26.875 15 26.875ZM15 17.5C14.295 17.5 13.7021 17.2596 13.2212 16.7788C12.7404 16.2979 12.5 15.705 12.5 15C12.5 14.295 12.7404 13.7021 13.2212 13.2212C13.7021 12.7404 14.295 12.5 15 12.5C15.705 12.5 16.2979 12.7404 16.7788 13.2212C17.2596 13.7021 17.5 14.295 17.5 15C17.5 15.705 17.2596 16.2979 16.7788 16.7788C16.2979 17.2596 15.705 17.5 15 17.5ZM3.125 11.875V5.625H4.375V9.5675C5.51417 7.6475 7.01083 6.09375 8.865 4.90625C10.7192 3.71875 12.7642 3.125 15 3.125C17.6908 3.125 20.0979 3.93417 22.2213 5.5525C24.3446 7.17167 25.7487 9.27917 26.4338 11.875H25.1688C24.4888 9.61833 23.2129 7.80417 21.3412 6.4325C19.4696 5.06083 17.3558 4.375 15 4.375C12.9033 4.375 10.9962 4.95792 9.27875 6.12375C7.56125 7.28958 6.1925 8.79 5.1725 10.625H9.375V11.875H3.125Z" fill="#999999"/>
</svg>
