<svg width="28" height="17" viewBox="0 0 28 17" fill="none" xmlns="http://www.w3.org/2000/svg">
<rect x="0.5" y="0.5" width="27" height="16" rx="8" stroke="#40A33E"/>
<path d="M10.0352 7.19727V8.22266H13.6484V8.85742H5.69922V8.22266H9.2832V7.19727H10.0352ZM12.916 4.88281V5.48828H10.1719C10.2354 6.37695 11.6904 7.02637 13.1992 7.14844L12.9453 7.72461C11.5 7.58789 10.1377 7.02637 9.67383 6.11328C9.2002 7.02637 7.83789 7.58789 6.38281 7.72461L6.12891 7.14844C7.62793 7.02637 9.08301 6.37695 9.16602 5.48828H6.43164V4.88281H12.916ZM12.8965 10.0098V10.6152H6.45117V10.0098H9.2832V9.18945H10.0449V10.0098H12.8965ZM9.66406 11.0449C11.334 11.0449 12.291 11.4355 12.291 12.1875C12.291 12.9492 11.334 13.3398 9.66406 13.3398C7.97461 13.3398 7.04688 12.9492 7.04688 12.1875C7.04688 11.4355 7.97461 11.0449 9.66406 11.0449ZM9.66406 11.582C8.49219 11.5918 7.81836 11.7871 7.81836 12.1875C7.81836 12.5879 8.49219 12.8125 9.66406 12.8027C10.8457 12.8125 11.5 12.5879 11.5098 12.1875C11.5 11.7871 10.8457 11.5918 9.66406 11.582ZM18.3066 4.80469C20.1914 4.80469 21.373 5.41016 21.373 6.45508C21.373 7.48047 20.1914 8.07617 18.3066 8.07617C16.4219 8.07617 15.2305 7.48047 15.2305 6.45508C15.2305 5.41016 16.4219 4.80469 18.3066 4.80469ZM18.3066 5.41992C16.9004 5.41992 16.0117 5.81055 16.0215 6.45508C16.0117 7.08984 16.9004 7.46094 18.3066 7.4707C19.6934 7.46094 20.5918 7.08984 20.5918 6.45508C20.5918 5.81055 19.6934 5.41992 18.3066 5.41992ZM21.2949 10.3223V13.1738H15.3184V10.3223H21.2949ZM16.0801 10.9375V12.5488H20.543V10.9375H16.0801ZM22.2617 8.82812V9.46289H14.3516V8.82812H22.2617Z" fill="#40A33E"/>
</svg>
