<svg width="76" height="11" viewBox="0 0 76 11" fill="none" xmlns="http://www.w3.org/2000/svg">
<path d="M2.70798 10.9582C2.41848 11.1034 2.08998 10.8489 2.14848 10.5241L2.77098 7.05553L0.12874 4.59455C-0.11801 4.36429 0.01024 3.94337 0.340989 3.8979L4.01448 3.38752L5.65247 0.214493C5.80022 -0.0714976 6.19997 -0.0714976 6.34772 0.214493L7.98572 3.38752L11.6592 3.8979C11.99 3.94337 12.1182 4.36429 11.8707 4.59455L9.22922 7.05553L9.85171 10.5241C9.91021 10.8489 9.58171 11.1034 9.29222 10.9582L5.99897 9.30386L2.70798 10.9582Z" fill="#E1944C"/>
<path d="M18.708 10.9582C18.4185 11.1034 18.09 10.8489 18.1485 10.5241L18.771 7.05553L16.1287 4.59455C15.882 4.36429 16.0102 3.94337 16.341 3.8979L20.0145 3.38752L21.6525 0.214493C21.8002 -0.0714976 22.2 -0.0714976 22.3477 0.214493L23.9857 3.38752L27.6592 3.8979C27.99 3.94337 28.1182 4.36429 27.8707 4.59455L25.2292 7.05553L25.8517 10.5241C25.9102 10.8489 25.5817 11.1034 25.2922 10.9582L21.999 9.30386L18.708 10.9582Z" fill="#E1944C"/>
<path d="M34.708 10.9582C34.4185 11.1034 34.09 10.8489 34.1485 10.5241L34.771 7.05553L32.1287 4.59455C31.882 4.36429 32.0102 3.94337 32.341 3.8979L36.0145 3.38752L37.6525 0.214493C37.8002 -0.0714976 38.2 -0.0714976 38.3477 0.214493L39.9857 3.38752L43.6592 3.8979C43.99 3.94337 44.1182 4.36429 43.8707 4.59455L41.2292 7.05553L41.8517 10.5241C41.9102 10.8489 41.5817 11.1034 41.2922 10.9582L37.999 9.30386L34.708 10.9582Z" fill="#E1944C"/>
<path d="M50.708 10.9582C50.4185 11.1034 50.09 10.8489 50.1485 10.5241L50.771 7.05553L48.1287 4.59455C47.882 4.36429 48.0102 3.94337 48.341 3.8979L52.0145 3.38752L53.6525 0.214493C53.8002 -0.0714976 54.2 -0.0714976 54.3477 0.214493L55.9857 3.38752L59.6592 3.8979C59.99 3.94337 60.1182 4.36429 59.8707 4.59455L57.2292 7.05553L57.8517 10.5241C57.9102 10.8489 57.5817 11.1034 57.2922 10.9582L53.999 9.30386L50.708 10.9582Z" fill="#E1944C"/>
<path d="M66.708 10.9582C66.4185 11.1034 66.09 10.8489 66.1485 10.5241L66.771 7.05553L64.1287 4.59455C63.882 4.36429 64.0102 3.94337 64.341 3.8979L68.0145 3.38752L69.6525 0.214493C69.8002 -0.0714976 70.2 -0.0714976 70.3477 0.214493L71.9857 3.38752L75.6592 3.8979C75.99 3.94337 76.1182 4.36429 75.8707 4.59455L73.2292 7.05553L73.8517 10.5241C73.9102 10.8489 73.5817 11.1034 73.2922 10.9582L69.999 9.30386L66.708 10.9582Z" fill="#D9D9D9"/>
</svg>
