<svg width="24" height="24" viewBox="0 0 24 24" fill="none" xmlns="http://www.w3.org/2000/svg">
<path d="M11.6939 1.86935C11.8741 1.72982 12.1259 1.72982 12.3061 1.86936L21.3061 8.83768C21.4284 8.93238 21.5 9.07835 21.5 9.23303V22C21.5 22.2761 21.2761 22.5 21 22.5H16.12C15.8439 22.5 15.62 22.2761 15.62 22V15.3933C15.62 14.5648 14.9484 13.8933 14.12 13.8933H9.88001C9.05158 13.8933 8.38001 14.5648 8.38001 15.3933V22C8.38001 22.2761 8.15615 22.5 7.88001 22.5H3C2.72386 22.5 2.5 22.2761 2.5 22V9.23303C2.5 9.07835 2.57159 8.93238 2.6939 8.83768L11.6939 1.86935Z" fill="white" stroke="#999999"/>
</svg>
