<svg width="18" height="17" viewBox="0 0 18 17" fill="none" xmlns="http://www.w3.org/2000/svg">
<path fill-rule="evenodd" clip-rule="evenodd" d="M12.0183 6.92108C12.0183 9.61514 9.79955 11.8422 7.00915 11.8422C4.21875 11.8422 2 9.61514 2 6.92108C2 4.22701 4.21875 2 7.00915 2C9.79955 2 12.0183 4.22701 12.0183 6.92108ZM11.617 12.1365C10.385 13.1987 8.77317 13.8422 7.00915 13.8422C3.13811 13.8422 0 10.7435 0 6.92108C0 3.09867 3.13811 0 7.00915 0C10.8802 0 14.0183 3.09867 14.0183 6.92108C14.0183 8.28317 13.6198 9.55336 12.9317 10.6242L16.8865 14.5293C17.2795 14.9174 17.2795 15.5465 16.8865 15.9346C16.4935 16.3226 15.8564 16.3226 15.4634 15.9346L11.617 12.1365Z" fill="#999999"/>
</svg>
