<svg width="40" height="40" viewBox="0 0 40 40" fill="none" xmlns="http://www.w3.org/2000/svg">
<path d="M30.6333 20.8333H21.6667C21.43 20.8333 21.2322 20.7533 21.0733 20.5933C20.9144 20.4333 20.8344 20.235 20.8333 19.9983C20.8322 19.7616 20.9122 19.5639 21.0733 19.405C21.2344 19.2461 21.4322 19.1666 21.6667 19.1666H30.6333L27.7333 16.2566C27.5778 16.1011 27.4944 15.9116 27.4833 15.6883C27.4722 15.4639 27.5611 15.2578 27.75 15.07C27.9233 14.8978 28.1178 14.8116 28.3333 14.8116C28.5489 14.8116 28.7456 14.9005 28.9233 15.0783L32.9033 19.0583C33.1733 19.3272 33.3083 19.6411 33.3083 20C33.3083 20.3589 33.1733 20.6733 32.9033 20.9433L28.9233 24.9233C28.7678 25.0789 28.5783 25.1639 28.355 25.1783C28.1317 25.1928 27.9256 25.1055 27.7367 24.9166C27.5644 24.7433 27.4767 24.5505 27.4733 24.3383C27.47 24.1261 27.5572 23.9278 27.735 23.7433L30.6333 20.8333ZM12.695 36.6666C11.9539 36.6666 11.32 36.4028 10.7933 35.875C10.2667 35.3472 10.0022 34.7144 10 33.9766V6.02498C10 5.28498 10.2639 4.65165 10.7917 4.12498C11.3194 3.59831 11.9528 3.33442 12.6917 3.33331H27.3083C28.0483 3.33331 28.6817 3.5972 29.2083 4.12498C29.735 4.65276 29.9989 5.28554 30 6.02331V10.7033C30 10.94 29.92 11.1378 29.76 11.2966C29.6 11.4555 29.4017 11.5355 29.165 11.5366C28.9283 11.5378 28.7306 11.4578 28.5717 11.2966C28.4128 11.1355 28.3333 10.9383 28.3333 10.705V9.16665H11.6667V30.8333H28.3333V29.295C28.3333 29.0583 28.4133 28.8605 28.5733 28.7016C28.7333 28.5428 28.9317 28.4628 29.1683 28.4616C29.405 28.4605 29.6028 28.5405 29.7617 28.7016C29.9206 28.8628 30 29.0605 30 29.295V33.9733C30 34.7144 29.7361 35.3483 29.2083 35.875C28.6806 36.4016 28.0472 36.6655 27.3083 36.6666H12.695Z" fill="#999999"/>
</svg>
