<svg width="28" height="17" viewBox="0 0 28 17" fill="none" xmlns="http://www.w3.org/2000/svg">
<rect x="0.5" y="0.5" width="27" height="16" rx="8" stroke="#D34B3B"/>
<path d="M13.834 8.07617V8.7207H12.4277V13.291H11.666V4.60938H12.4277V8.07617H13.834ZM6.83203 5.46875V10.4395C8.10156 10.4346 9.39551 10.3369 10.8262 10.0391L10.9238 10.6934C9.42969 10.9961 8.08203 11.084 6.76367 11.084H6.07031V5.46875H6.83203ZM15.8262 4.81445V5.83984H17.2422V4.81445H17.9746V8.125H15.0938V4.81445H15.8262ZM15.8262 7.49023H17.2422V6.44531H15.8262V7.49023ZM19.3906 4.81445V5.83984H20.7969V4.81445H21.5293V8.125H18.6484V4.81445H19.3906ZM19.3906 7.49023H20.7969V6.44531H19.3906V7.49023ZM22.2617 8.95508V9.58008H14.3516V8.95508H22.2617ZM21.2852 10.459V13.1738H15.3086V10.459H21.2852ZM16.0703 11.0742V12.5488H20.5332V11.0742H16.0703Z" fill="#D34B3B"/>
</svg>
