<svg width="24" height="24" viewBox="0 0 24 24" fill="none" xmlns="http://www.w3.org/2000/svg">
<mask id="mask0_20_3432" style="mask-type:luminance" maskUnits="userSpaceOnUse" x="2" y="2" width="20" height="20">
<path d="M12 22C17.5228 22 22 17.5228 22 12C22 6.47715 17.5228 2 12 2C6.47715 2 2 6.47715 2 12C2 17.5228 6.47715 22 12 22Z" fill="white"/>
</mask>
<g mask="url(#mask0_20_3432)">
<mask id="mask1_20_3432" style="mask-type:luminance" maskUnits="userSpaceOnUse" x="2" y="2" width="20" height="20">
<path d="M12 22C17.5228 22 22 17.5228 22 12C22 6.47715 17.5228 2 12 2C6.47715 2 2 6.47715 2 12C2 17.5228 6.47715 22 12 22Z" fill="white"/>
</mask>
<g mask="url(#mask1_20_3432)">
<path d="M5.21729 23.5171C5.22971 18.9519 8.26697 15.2376 11.9999 15.2376C15.7328 15.2376 18.7639 18.9457 18.7825 23.5171H5.2235H5.21729Z" fill="#4B4B4B" stroke="#4B4B4B" stroke-miterlimit="10"/>
<path d="M11.9998 12.7516C10.0433 12.7516 8.44702 11.1615 8.44702 9.19879C8.44702 7.23606 10.0371 5.646 11.9998 5.646C13.9625 5.646 15.5526 7.23606 15.5526 9.19879C15.5526 11.1615 13.9625 12.7516 11.9998 12.7516Z" fill="#4B4B4B" stroke="#4B4B4B" stroke-miterlimit="10"/>
</g>
</g>
<path d="M12 22C17.5228 22 22 17.5228 22 12C22 6.47715 17.5228 2 12 2C6.47715 2 2 6.47715 2 12C2 17.5228 6.47715 22 12 22Z" stroke="#4B4B4B" stroke-miterlimit="10"/>
</svg>
